<svg width="483" height="254" fill="none" xmlns="http://www.w3.org/2000/svg"><path d="M413.455 158.478c-.511 0-1.023-.22-1.388-.623-.731-.842-74.697-85.74-90.594-98.669-14.545-11.83-54.488-39.702-61.87-44.83l-7.273 6.483a1.817 1.817 0 0 1-2.302.11L228.065 4.321c-3.07 2.564-12.499 10.438-26.239 22.745-16.848 15.053-46.668 53.949-46.96 54.352-.183.256-.439.44-.695.55-.182.072-4.86 2.343-30.222 19.704-3.033 2.087-6.651 4.798-10.744 8.13-.768.623-1.937.513-2.558-.256-.622-.769-.512-1.941.256-2.564 4.166-3.406 7.857-6.189 10.963-8.314 22.073-15.126 28.724-18.935 30.332-19.814 3.143-4.102 30.734-39.849 47.179-54.535C216.37 9.156 226.712.659 226.822.549a1.861 1.861 0 0 1 2.266-.037l21.927 16.592 7.235-6.446a1.865 1.865 0 0 1 2.266-.147c.475.33 47.216 32.78 63.295 45.818 16.153 13.112 88 95.593 91.033 99.072.658.769.585 1.905-.183 2.6-.328.293-.767.44-1.206.44v.037Z" fill="#C6A35D"/><path d="M371.1 145.036a1.864 1.864 0 0 1-1.79-1.392c0-.146-3.801-14.467-17.176-21.096-8.04-3.992-13.23-7.545-16.153-9.852v10.365a1.85 1.85 0 0 1-.914 1.575 1.814 1.814 0 0 1-1.827 0l-38.153-22.085-42.428 29.337c-.84.586-1.973.366-2.558-.477a1.836 1.836 0 0 1 .475-2.563l43.379-29.997c.584-.403 1.352-.44 1.936-.073l36.399 21.06v-11.171c0-.732.438-1.428 1.133-1.685a1.798 1.798 0 0 1 2.01.44c.036.036 5.226 5.384 18.309 11.83 14.946 7.398 18.93 22.817 19.112 23.477.256.989-.365 1.977-1.315 2.234-.146.036-.293.073-.439.073Zm-127.833-21.389h-.109c-1.024-.074-1.755-.916-1.718-1.942l1.644-25.6-6.395 10.767c-.11.22-.292.403-.475.55l-8.332 6.116a1.85 1.85 0 0 1-2.558-.403c-.585-.806-.402-1.978.402-2.564l8.04-5.896 10.049-16.995a1.824 1.824 0 0 1 2.12-.805c.804.256 1.352 1.025 1.279 1.868l-2.12 33.182c-.073.952-.877 1.722-1.827 1.722Zm-103.896-8.937c-.256 0-.475-.036-.731-.146a1.844 1.844 0 0 1-.95-2.417l13.996-32.56a1.838 1.838 0 0 1 2.412-.953 1.844 1.844 0 0 1 .95 2.418l-13.996 32.56c-.293.695-.987 1.098-1.681 1.098Z" fill="#C6A35D"/><path d="M139.371 114.71c-.329 0-.695-.109-.987-.293-.84-.549-1.096-1.684-.548-2.527l27.335-41.9c.402-.622 1.133-.951 1.828-.805.73.11 1.279.623 1.461 1.355l1.352 5.164 5.848-8.826c.438-.66 1.279-.99 2.046-.733.768.22 1.316.952 1.316 1.758V74.9c1.388-1.356 3.289-2.967 5.92-4.908 4.824-3.516 8.332-3.92 12.754-4.432 3.326-.366 7.419-.842 13.522-2.783 13.265-4.212 19.259-22.818 19.332-23.001.255-.843 1.096-1.392 1.973-1.245 1.133.146 5.043 1.611 7.894 14.1 1.388 5.97 2.996 9.706 4.275 11.904l7.273-24.466c.146-.513.511-.916.986-1.136.476-.22 1.06-.22 1.499 0l5.518 2.528-2.375-29.227c-.073-.99.657-1.905 1.681-1.978 1.023-.037 1.9.66 1.973 1.685l2.631 32.34a1.889 1.889 0 0 1-.767 1.648c-.548.366-1.206.44-1.827.146l-6.432-2.966-7.748 26.004a1.916 1.916 0 0 1-1.242 1.245 1.837 1.837 0 0 1-1.718-.366c-.438-.367-4.458-4.102-7.345-16.555-1.316-5.75-2.741-8.607-3.764-10.035-2.266 5.64-8.771 19.045-20.794 22.854-6.432 2.051-10.744 2.527-14.216 2.93-4.349.513-6.98.806-11.037 3.736-7.016 5.127-8.186 7.764-8.186 7.801-.328.806-1.206 1.282-2.046 1.099-.841-.183-1.462-.88-1.462-1.758V73.91l-4.751 7.178a1.872 1.872 0 0 1-1.827.806c-.694-.11-1.279-.66-1.462-1.355l-1.352-5.128-25.069 38.457a1.851 1.851 0 0 1-1.535.842h.073Z" fill="#C6A35D"/><path d="M245.387 90.464h-.329c-.987-.183-1.645-1.135-1.498-2.124l8.332-48.09c.182-.988 1.133-1.72 2.119-1.5.987.182 1.645 1.135 1.499 2.123l-8.333 48.09a1.806 1.806 0 0 1-1.79 1.501Zm-10.233 17.288c-.986 0-1.79-.77-1.827-1.758l-2.85-65.633c-.037-1.026.73-1.868 1.754-1.905.986-.073 1.863.733 1.9 1.758l2.85 65.633c.037 1.026-.73 1.868-1.754 1.905h-.073Zm-60.298 11.5h-.11c-1.023-.074-1.791-.916-1.718-1.941l2.376-37.358c.073-1.026.804-1.832 1.937-1.722 1.023.074 1.79.916 1.717 1.941l-2.375 37.358a1.838 1.838 0 0 1-1.827 1.722Zm120.122-16.994c-.256 0-.548-.074-.804-.183-.914-.44-1.279-1.539-.877-2.454l22.329-46.844c.438-.916 1.534-1.282 2.448-.88.914.44 1.279 1.54.877 2.455l-22.329 46.844a1.804 1.804 0 0 1-1.644 1.025v.037ZM33.391 123.207H53.09v111.195H30.833v-85.887l-18.747 15.31-11.11-14.504 32.415-26.114Zm76.452 95.593c2.448 0 5.043-.33 7.784-.953 2.558-.622 5.043-1.538 7.455-2.71 2.448-1.282 4.385-2.967 5.884-5.091 1.498-1.904 2.229-4.248 2.229-6.995-.11-6.483-2.376-11.061-6.834-13.698-4.459-2.454-10.342-3.663-17.651-3.663H97.893v-17.543h10.159c7.638 0 13.631-1.282 17.98-3.809 4.349-2.454 6.578-6.044 6.688-10.842 0-2.856-.475-5.274-1.426-7.178-1.059-1.905-2.485-3.406-4.275-4.468-3.618-2.015-8.04-3.04-13.339-3.04-8.807 0-17.103 1.977-24.96 5.896l-1.28-17.836c9.1-3.626 19.443-5.457 30.991-5.567 3.618 0 7.455.329 11.621.952a36.01 36.01 0 0 1 11.913 4.285c3.801 2.015 6.944 4.871 9.392 8.607 2.339 3.736 3.545 8.607 3.655 14.65-.11 7.435-2.083 13.185-5.884 17.214-3.91 4.139-8.844 7.289-14.764 9.413v.33c7.09 1.062 12.389 3.992 15.897 8.753 3.508 4.761 5.263 10.658 5.263 17.69-.11 6.483-1.389 11.903-3.801 16.262-2.668 4.248-6.103 7.654-10.342 10.182a68.642 68.642 0 0 1-6.505 2.856c-2.339.843-4.714 1.612-7.163 2.235-4.97 1.062-9.867 1.611-14.618 1.611-10.378 0-20.1-1.209-29.09-3.662l1.28-18.972c7.638 3.296 15.824 4.981 24.631 5.091h-.073Zm99.365 17.543c-8.369-.11-15.093-2.088-20.173-5.897-5.189-3.626-9.1-8.35-11.767-14.174-2.668-5.823-4.386-12.049-5.263-18.642-.84-6.483-1.279-12.636-1.279-18.496 0-7.105.621-14.137 1.9-21.023 1.279-6.812 3.326-12.965 6.213-18.496 2.96-5.53 6.943-9.998 11.914-13.368 4.86-3.296 11.036-4.944 18.455-4.944 8.039.11 14.69 1.868 19.88 5.274 5.08 3.626 8.99 8.24 11.767 13.844 2.778 5.604 4.678 11.83 5.738 18.643.95 6.812 1.425 13.478 1.425 20.07 0 6.593-.475 13.002-1.425 19.595-1.06 6.592-3.033 12.745-5.884 18.496-2.741 5.64-6.688 10.181-11.767 13.698-5.08 3.516-11.658 5.31-19.698 5.42h-.036Zm0-16.555c4.239 0 7.528-1.501 9.867-4.468 2.229-2.857 3.8-6.409 4.75-10.694 1.06-4.359 1.681-8.827 1.901-13.369v-12.123c0-3.809-.073-8.057-.146-12.745-.22-4.579-.841-9.01-1.901-13.369-.95-4.468-2.558-8.057-4.751-10.841-2.338-2.747-5.554-4.212-9.684-4.285-3.91.11-6.98 1.538-9.209 4.285-2.229 2.747-3.874 6.373-4.934 10.841a114.339 114.339 0 0 0-1.754 13.369c-.219 4.688-.329 8.936-.329 12.745 0 3.516.11 7.545.329 12.123.329 4.578.914 9.01 1.754 13.369 1.06 4.248 2.705 7.801 4.934 10.694 2.229 2.967 5.299 4.468 9.209 4.468h-.036Zm90.301 3.7h.183l10.415-31.681h11.439l-16.226 43.034a305.292 305.292 0 0 1-2.595 6.923c-.877 2.307-1.973 4.358-3.289 6.153a13.929 13.929 0 0 1-4.714 4.285c-2.01 1.135-4.495 1.685-7.419 1.685-2.704 0-5.335-.403-7.966-1.172l.767-8.351c1.279.513 3.216.769 5.811.769 2.302-.073 4.093-.769 5.372-2.197 1.279-1.392 1.937-3.26 1.937-5.567l-16.555-45.562h12.425l10.415 31.681Zm63.442 9.266c-3.984 2.307-8.954 3.443-14.874 3.443-14.91-.22-22.438-7.728-22.621-22.488 0-6.446 1.681-11.867 5.043-16.262 3.362-4.322 8.369-6.556 15.057-6.666 7.893.074 13.375 2.491 16.408 7.325 2.851 4.835 4.276 11.134 4.203 18.862h-29.93c.292 3.48 1.535 6.153 3.8 7.985 2.23 1.978 5.08 2.966 8.588 2.966 2.741 0 5.336-.439 7.748-1.355a33.096 33.096 0 0 0 6.651-3.04v9.193l-.073.037Zm-7.565-23.514c-.11-2.856-.877-5.237-2.266-7.178-1.461-1.978-3.764-2.967-6.907-3.04-3.069.073-5.445 1.025-7.126 2.857-1.681 1.904-2.631 4.358-2.85 7.325h19.149v.036Zm21.525-15.126c4.824-2.124 9.83-3.223 15.056-3.296 12.608-.183 18.821 5.933 18.675 18.276v5.567c0 4.212.036 7.838.146 10.878.109 3.186.292 6.446.511 9.669h-9.903c-.329-2.637-.512-4.798-.512-6.483h-.183c-1.352 2.344-3.216 4.176-5.627 5.494-2.449 1.355-5.044 2.014-7.748 2.014-3.91-.073-7.382-1.172-10.342-3.369-3.143-2.198-4.751-5.347-4.787-9.523 0-3.259.73-5.896 2.192-7.911 1.352-2.014 3.07-3.516 5.226-4.468 2.229-1.062 4.605-1.758 7.163-2.124a65.752 65.752 0 0 1 7.382-.44h6.212c0-3.479-.767-5.933-2.338-7.325-1.572-1.355-4.02-2.014-7.382-2.014-4.934.073-9.392 1.648-13.376 4.724l-.329-9.669h-.036Zm6.066 28.568c0 1.795.695 3.113 2.12 3.956 1.279.915 2.96 1.355 5.043 1.355 3.472-.074 6.103-1.355 7.894-3.883 1.608-2.527 2.412-5.493 2.338-8.936h-6.797c-.658 0-1.352.036-2.01.183-1.462.183-2.85.513-4.129 1.025-1.279.513-2.339 1.282-3.107 2.271-.913 1.026-1.352 2.344-1.352 4.029Zm38.994-30.839h10.013v9.853h.183c.328-2.235 1.571-4.579 3.691-6.996 2.083-2.454 4.787-3.772 8.149-3.882 1.133 0 2.266.11 3.435.33v11.39c-1.169-.623-2.85-.916-5.043-.916s-3.983.623-5.226 1.868c-1.242 1.172-2.156 2.711-2.777 4.615a23.933 23.933 0 0 0-1.023 5.714c-.11 1.977-.183 3.809-.183 5.493v15.932h-11.256V191.88l.037-.037Zm58.142 9.083a31.375 31.375 0 0 0-4.714-1.428c-1.499-.293-3.289-.439-5.372-.439-1.572 0-3.034.293-4.386.915-1.462.733-2.229 2.015-2.266 3.883.073 1.611 1.097 2.783 3.107 3.442.95.403 2.01.769 3.179 1.099 1.169.33 2.339.733 3.545 1.172 1.279.403 2.521.916 3.691 1.502 1.133.659 2.119 1.465 3.033 2.344a10.25 10.25 0 0 1 2.266 3.443c.512 1.391.767 3.113.767 5.127-.109 5.018-1.973 8.607-5.554 10.878-3.582 2.197-7.784 3.296-12.608 3.296-4.313-.073-8.588-.659-12.791-1.868l.658-9.266c3.545 1.905 7.236 2.857 11.109 2.857 1.572 0 3.18-.403 4.788-1.172 1.681-.733 2.558-2.124 2.594-4.139 0-1.135-.255-2.051-.767-2.783-.548-.66-1.316-1.209-2.266-1.612-1.973-.769-4.202-1.502-6.724-2.197a35.153 35.153 0 0 1-3.508-1.429 12.53 12.53 0 0 1-3.216-2.197c-.987-.916-1.681-2.015-2.193-3.37-.621-1.282-.914-2.893-.914-4.798.037-4.725 1.828-8.131 5.299-10.292 3.253-2.124 7.163-3.186 11.695-3.186 2.631 0 4.933.147 6.907.44 1.9.329 3.691.732 5.372 1.172l-.768 8.497.037.109Z" fill="#C6A35D"/></svg>