<svg width="484" height="75" fill="none" xmlns="http://www.w3.org/2000/svg"><path d="M75.136 1.035h58.749v15.372H98.402v12.518h33.324v15.591H98.401v14.128h37.496v15.153h-60.76V1.035Zm143.323 0h23.338l27.692 40.078V1.034h17.01V74.2h-23.448l-27.546-39.491v39.089h-17.046V1.035Zm103.047 0h-23.997V73.76h23.997V1.035ZM332.48.669h23.339l27.655 40.077V.67h17.01v73.127h-23.412l-27.545-39.491v39.089H332.48V.669ZM181.366 29.547h-13.461V15.419h12.913s6.182.915 5.779 7.65c-.402 6.734-5.231 6.478-5.231 6.478Zm27.692 39.858c-.549-1.867-.659-.66-.403-12.115.256-11.456-2.158-14.384-2.158-14.384-3.109-5.527-7.243-6.99-7.243-6.99s9.804-4.173 9.804-15.995c0-17.458-16.681-18.85-16.681-18.85h-48.359l-.147 72.726h24.07v-29.28h8.084c1.134 0 4.244.292 5.561.914 2.341 1.135 2.816 2.416 3.036 2.855.658 1.354.256 11.31.256 11.31s0 8.345.951 11.016c.951 2.709 2.963 3.185 2.963 3.185h22.863s-2.012-2.526-2.561-4.392" fill="#E21F26"/><path d="m429.602 42.064 8.377-22.436 8.12 22.436h-16.534.037Zm26.886-40.992H426.2l-26.594 72.725h17.887L424.59 57.4h25.936l7.096 16.397h25.424L456.452 1.072h.036Zm-418.7 29.463H24.326V16.407h12.913s6.182.915 5.78 7.65c-.403 6.734-5.231 6.478-5.231 6.478Zm0 28.146H24.326V44.553h12.913s6.182.952 5.78 7.65c-.403 6.734-5.231 6.478-5.231 6.478Zm19.607-23.57s8.523-4.869 8.12-15.336C64.858 2.353 48.36 1.072 48.36 1.072H0v72.651s54.249-.036 52.42.074c-1.83.146 6-.11 9.328-3.807 1.317-1.464 6.511-5.453 7.06-14.97.731-13.285-11.413-19.947-11.413-19.947" fill="#E21F26"/></svg>