<svg width="207" height="237" fill="none" xmlns="http://www.w3.org/2000/svg"><g clip-path="url(#a)"><path d="m30.796 89.471 72.756-.248s-11.06 30.49-5.005 42.123c6.054 11.632 20.814 63.173 20.475 85.168-.338 21.996-109.364 30.387-111.663 2.29-2.299-28.105 26.385-81.011 29.409-92.23 3.023-11.218-5.972-37.103-5.972-37.103Z" fill="#231F20"/><g fill="#C6A35D"><path d="M71.561 48.418c-1.09.924-2.382 1.117-3.735.951-.69-.083-.973-.696-.745-1.358.214-.614.69-.98 1.229-1.255 1.456-.745 2.92-1.462 4.39-2.172 1.76-.841 1.795-.828 2.161-2.71.663-3.378 1.111-6.778.677-10.232a67.174 67.174 0 0 0-1.892-9.495c-.621-2.248-1.277-4.489-1.401-6.84-.021-.365-.042-.73-.021-1.096.027-.366.18-.648.67-.552.041.724.041 1.455.138 2.172.303 2.248.773 4.475 1.601 6.585 1.485 3.806 4.046 6.709 7.65 8.667 2.747 1.497 5.701 2.448 8.746 3.09 3.818.806 7.656 1.495 11.487 2.22 2.914.558 5.834 1.096 8.616 2.172.787.303 1.525.296 2.326 0 1.906-.704 3.839-1.331 5.758-2.007 1.373-.483 2.761-.469 4.135-.048 1.084.33 2.126.779 3.182 1.179.463.18.919.38 1.409.579.255-.455-.014-.752-.194-1.034-.642-1.014-1.318-2.007-1.953-3.027a5.888 5.888 0 0 0-2.589-2.283c-.725-.337-1.471-.634-2.182-1a10.884 10.884 0 0 1-1.608-1 2.713 2.713 0 0 1-1.036-1.66c-.145-.76.145-1.187.919-1.2.524-.008 1.063.103 1.574.234 4.811 1.207 8.415 4.054 10.983 8.226 1.27 2.068 2.768 3.902 4.598 5.502a51.545 51.545 0 0 1 6.661 7.047 61.046 61.046 0 0 0 7.781 8.184c1.353 1.186 2.637 2.455 3.955 3.683 1.533 1.434 2.133 3.254 2.216 5.295.09 2.275-.193 4.523-.504 6.771-.773 5.633-2.278 11.087-4.073 16.466-2.616 7.84-4.922 15.769-7.255 23.691-1.885 6.413-4.37 12.584-7.615 18.445-1.491 2.696-3.237 5.213-5.371 7.44a17.878 17.878 0 0 1-4.521 3.433 26.716 26.716 0 0 0-3.376 2.124c-1.305.972-2.692 1.448-4.301 1.193-1.415-.228-2.837-.441-4.232-.765-1.926-.442-3.521-1.469-4.625-3.11-1.374-2.048-2.755-4.096-3.949-6.247-.718-1.296-1.215-2.744-1.595-4.185-.835-3.151-1.546-6.344-2.298-9.516a52.718 52.718 0 0 1-1.388-10.287 39.183 39.183 0 0 0-.069-1.297c0-.096-.048-.186-.117-.455-.132.352-.242.559-.297.773-1.471 5.709-2.285 11.494-2.223 17.396.055 5.482 1.125 10.791 2.851 15.976a243.162 243.162 0 0 0 3.293 9.329c2.092 5.523 3.659 11.205 5.212 16.893.98 3.6 1.988 7.192 2.844 10.819.787 3.31 1.077 6.709 1.346 10.094.159 1.959.27 3.924.401 5.889.021.317 0 .641 0 .965-.635-.014-.608-.414-.628-.779-.104-1.393-.228-2.793-.297-4.185-.38-7.564-1.768-14.935-4.032-22.161-1.394-4.448-2.54-8.971-3.969-13.411-1.264-3.931-2.782-7.778-4.142-11.681-1.354-3.875-2.479-7.812-3.031-11.887a54.094 54.094 0 0 1-.393-10.674c.345-5.585 1.422-11.025 3.051-16.369.103-.345.186-.717.2-1.075.318-7.585 1.885-14.928 4.273-22.106.808-2.434 1.761-4.82 2.713-7.413-.428-.572-.904-1.344-1.505-1.992-1.318-1.414-2.727-2.745-4.066-4.137a112.406 112.406 0 0 1-3.59-3.896c-.428-.49-.759-1.103-1.014-1.703-.173-.407-.208-.91-.166-1.365.062-.786.6-1.276 1.394-1.297.456-.007.932.076 1.374.2.414.117.822.29 1.188.51a40.9 40.9 0 0 1 7.566 5.889c1.422 1.407 1.719 3.117 1.001 4.978-.345.903-.76 1.78-1.167 2.655-.166.358-.207.662 0 1.034 1.774 3.11 1.754 6.371.718 9.674-.497 1.586-1.125 3.13-1.788 4.661-1.498 3.455-3.058 6.881-4.57 10.329-.359.821-.587 1.703-.946 2.531-.697 1.627-.828 3.323-.828 5.074 0 5.572.883 11.012 2.312 16.383.553 2.09 1.015 4.206 1.512 6.316a15.544 15.544 0 0 0 2.009 4.765c.87 1.379 1.761 2.751 2.589 4.158 1.319 2.234 3.286 3.426 5.826 3.75 1.126.145 2.251.297 3.376.414 1.146.117 2.196-.179 3.1-.889 1.422-1.117 2.968-2.021 4.549-2.896 2.223-1.228 3.997-2.986 5.558-4.972 2.982-3.813 5.17-8.074 7.089-12.487 2.134-4.895 3.804-9.956 5.226-15.1 2.002-7.261 4.356-14.411 6.662-21.575 1.471-4.572 2.727-9.198 3.41-13.963.297-2.075.477-4.171.629-6.26.062-.855-.035-1.731-.152-2.586-.2-1.469-.877-2.71-1.975-3.717-1.87-1.716-3.769-3.399-5.564-5.185-1.746-1.737-3.479-3.51-5.053-5.399-2.616-3.123-5.323-6.15-8.367-8.867-1.505-1.344-2.858-2.834-3.756-4.64-1.449-2.903-3.907-4.8-6.482-6.523-1.436-.959-3.189-1.324-4.915-1.58-.318-.047-.78.063-.98.284-.325.337-.221.861.069 1.2.4.468.849.95 1.366 1.268.767.462 1.616.793 2.43 1.165 1.505.683 2.686 1.717 3.535 3.138a160.745 160.745 0 0 0 2.292 3.737c.124.193.407.31.642.4.746.29 1.505.537 2.251.827.283.11.538.303.752.641-.711.118-1.415.283-2.126.352-1.029.09-1.774-.365-2.071-1.345-.138-.455-.366-.654-.76-.806-1.09-.42-2.154-.904-3.251-1.283-1.761-.606-3.5-.613-5.261.173-1.18.53-2.457.848-3.686 1.268-.345.118-.677.255-1.036.566.836.248 1.65.558 2.499.73a8.75 8.75 0 0 1 3.694 1.697 79.456 79.456 0 0 1 3.534 2.944c.422.372.836.607 1.402.662 1.063.11 2.119.269 3.168.434.311.049.601.207.884.428-1.139.455-2.326.262-3.59.372.49.89.925 1.73 1.416 2.538.096.158.386.241.6.29 1.477.323 2.389 1.268 2.913 2.626.297.78.566 1.566.794 2.365.366 1.29.884 2.503 1.65 3.62.587.848 1.105 1.752 1.685 2.607.876 1.296 1.995 2.31 3.444 2.965a10.32 10.32 0 0 1 1.892 1.11c1.222.917 1.47 1.937.856 3.337-.359.82-.746 1.641-1.167 2.434-1.256 2.358-2.229 4.84-3.065 7.378-.587 1.779-1.311 3.489-2.264 5.109a10.51 10.51 0 0 0-.856 1.8c-1.622 4.481-3.341 8.922-5.33 13.252-.151.324-.22.697-.276 1.055-.248 1.814-.455 3.634-.725 5.447-.317 2.138-.649 4.275-1.063 6.392a7.342 7.342 0 0 1-.849 2.22c-.773 1.317-1.65 2.586-2.52 3.848a12.264 12.264 0 0 1-1.284 1.531 3.219 3.219 0 0 1-.973.682c-.96.441-1.926-.165-1.995-1.22-.055-.869.331-1.621.69-2.372 1.947-4.089 3.914-8.178 5.847-12.274a85.218 85.218 0 0 0 1.927-4.392 4.965 4.965 0 0 0 .352-1.73c.027-2.903-.042-5.8 0-8.702.048-3.234.186-6.46.262-9.688.138-5.999.255-11.997.38-17.996.055-2.634.096-5.268-.394-7.874-.2-1.07-.504-2.117-.773-3.214-1.029-.048-1.926-.055-2.817-.13-.828-.076-1.663-.152-2.464-.352-1.201-.304-2.278-.276-3.286.572-.477.4-1.091.641-1.643.945-.698.386-1.415.751-2.099 1.165-.897.545-1.864 1.048-2.892 1.014a7.76 7.76 0 0 0-2.872.413c-.38.131-.877.09-1.277-.02-1.077-.297-1.443-1.27-.822-2.193.311-.462.732-.862 1.132-1.255.856-.841 1.712-1.676 2.596-2.49a25.897 25.897 0 0 1 1.753-1.482c1.291-.992 2.596-1.95 3.846-3.082-.594.214-1.209.386-1.781.648-2.141.993-4.405 1.538-6.697 1.972a5.34 5.34 0 0 1-.994.104c-.863-.007-1.339-.51-1.374-1.38-.027-.723.283-1.316.801-1.757a16.82 16.82 0 0 1 1.947-1.386c.745-.462 1.539-.862 2.485-1.386-.918-.152-1.629-.27-2.34-.38-2.106-.324-4.197-.703-6.31-.944-3.742-.428-7.47-.145-11.163.51-5.288.938-10.307 2.717-15.201 4.875-.435.193-.65.483-.85.896-.434.897-.904 1.786-1.463 2.6-.428.62-.973 1.179-1.753 1.406.165-.193.317-.4.504-.565 1.049-.965 1.67-2.172 2.174-3.579-.228.042-.324.035-.4.076-1.733.835-3.473 1.669-5.199 2.524a1.914 1.914 0 0 0-.67.572c-.462.648-.158 1.386.636 1.476.421.048.863 0 1.284-.076.58-.11 1.14-.303 1.705-.462v-.048Zm56.753 47.321.208.062c.11-.234.234-.462.331-.703 1.401-3.565 2.789-7.13 4.204-10.688.345-.862.78-1.689 1.167-2.537.642-1.427 1.408-2.806 1.884-4.289.988-3.096 2.292-6.04 3.832-8.888a9.724 9.724 0 0 0 .69-1.551c.38-1.145.124-1.903-.89-2.593-.525-.351-1.091-.64-1.664-.917-1.284-.634-2.382-1.49-3.203-2.654-1.754-2.476-3.521-4.944-4.225-7.985-.166-.703-.477-1.386-.815-2.034-.435-.82-1.146-1.241-2.133-1.214.014.166 0 .27.028.359 1.104 3.137 1.256 6.392 1.187 9.667-.138 6.826-.29 13.66-.442 20.486-.034 1.634-.145 3.26-.159 4.895-.027 3.523-.006 7.047-.006 10.57l.006.014ZM75.172 43.391c2.009-.8 3.88-1.593 5.778-2.303 6.593-2.448 13.365-3.903 20.448-3.482 1.726.103 3.445.262 5.136.724 1.112.303 2.299.331 3.452.476l.048-.255c-1.215-.318-2.416-.704-3.645-.945-3.956-.765-7.932-1.462-11.888-2.213-3.672-.704-7.276-1.655-10.693-3.213-3.32-1.51-6.124-3.641-8.105-6.75-.117-.18-.276-.332-.552-.663.621 3.213 1.25 6.213 1.27 9.288.02 3.117-.518 6.15-1.25 9.322v.014Zm48.621 1.427c-.194-.206-.366-.448-.587-.627-1.125-.89-2.237-1.8-3.404-2.627-.531-.38-1.166-.655-1.788-.862a37.347 37.347 0 0 0-3.451-1.007c-.601-.145-1.291-.269-1.857-.11-2.044.572-3.852 1.655-5.558 2.89-.552.399-.938.95-1.083 1.633-.138.642.082.89.738.752 2.216-.47 4.453-.841 6.531-1.82.835-.394 1.747-.649 2.637-.918.587-.179 1.105-.034 1.546.621-.345.33-.628.71-1.001.945-3.113 1.937-5.681 4.509-8.27 7.046-.345.338-.621.786-.814 1.235-.235.538.034.903.607.786.642-.131 1.256-.4 1.871-.662.145-.062.255-.29.317-.47.415-1.192 1.215-2.026 2.299-2.654.539-.31 1.029-.724 1.484-1.151.912-.855 1.871-1.662 3.121-1.896 1.277-.235 2.52-.58 3.783-.883.904-.22 1.885-.165 2.886-.234l-.007.013Zm-14.525 30.194c.442-1.096.808-1.986 1.16-2.875.773-1.93.331-3.613-1.16-4.985-1.981-1.827-4.046-3.565-6.393-4.923a6.9 6.9 0 0 0-1.746-.717c-1.174-.297-2.078.537-1.871 1.73.103.573.324 1.166.649 1.655.49.745 1.077 1.434 1.691 2.09 2.465 2.647 5.336 4.909 7.67 8.025Zm.2 1.345c-3.459 8.377-5.806 16.858-6.558 25.746.193-.276.317-.572.448-.875 1.215-2.848 2.417-5.703 3.652-8.543.746-1.71 1.588-3.38 2.306-5.096.78-1.848 1.298-3.778 1.381-5.806.076-1.855-.262-3.62-1.229-5.433v.007Zm17.645 25.595-.2-.062c-.062.068-.145.131-.179.213-2.044 4.255-4.101 8.509-6.117 12.777-.442.931-.766 1.91-1.104 2.882-.076.214.048.497.075.752.27-.042.601 0 .808-.138 1.022-.662 1.823-1.545 2.437-2.593.421-.717.801-1.475 1.332-2.103 1.561-1.848 1.816-4.082 2.051-6.336.069-.621.159-1.248.262-1.862.2-1.172.421-2.344.635-3.517v-.013Zm-.386-52.907a8.366 8.366 0 0 0-1.284-2.351c-.118-.152-.387-.262-.594-.276a277.948 277.948 0 0 0-4.791-.2 1.492 1.492 0 0 0-.67.131 314.977 314.977 0 0 0-4.584 2.22c-.296.145-.6.324-.814.559-.891 1.014-1.74 2.055-2.665 3.15 1.049-.261 2.043-.468 2.92-1.054.608-.407 1.27-.717 1.906-1.076.724-.407 1.463-.786 2.153-1.24.553-.366 1.126-.587 1.782-.497.628.082 1.256.165 1.87.303 1.533.345 3.086.297 4.764.324l.007.007Zm2.202-10.04c.269 1.276.794 1.435 2.105.704l-2.105-.703Zm-7.138 6.503c.987.345 2.188.393 2.809.117-.932-.317-1.808-.276-2.809-.117Zm3.369.18c.483.413.8.275 1.111.15l-1.111-.15ZM2.347 193.092c-.483.089-.69-.028-.71-.49-.098-1.993-.194-3.992-.325-5.985-.083-1.296-.18-2.592-.36-3.882-.296-2.151-.407-4.302-.455-6.474-.069-2.931-.366-5.854-.442-8.785-.083-3.268-.041-6.536-.02-9.798.02-2.944.517-5.833.89-8.743.352-2.744.711-5.488.898-8.246.428-6.254.807-12.501 1.794-18.7.518-3.261.539-6.571.801-9.86.435-5.523.566-11.053.414-16.59-.082-3-.428-5.992-.455-8.984-.042-5.53.014-11.067.138-16.597.055-2.434.552-4.826 1.25-7.17a38.6 38.6 0 0 0 .862-3.386c.394-1.93 1.146-3.71 2.375-5.234 1.464-1.813 3.024-3.55 4.59-5.288.864-.959 2.01-1.531 3.149-2.09 2.72-1.344 5.605-2.11 8.588-2.578.67-.104 1.401.007 1.94-.586.076-.083.331-.07.476-.028.683.2 1.319 0 1.954-.193 2.934-.91 5.785-2.041 8.512-3.468 1.297-.676 2.671-1.228 3.948-1.93 1.367-.752 2.741-1.525 3.998-2.456 2.036-1.51 2.457-3.737 2.27-6.088-.193-2.51-.82-4.923-1.98-7.178-.18-.352-.346-.724-.505-1.09-.027-.054 0-.13 0-.247.428-.173.636.048.801.42.463 1.034 1.015 2.034 1.381 3.103.808 2.379 1.374 4.806 1.015 7.357-.235 1.662-.96 3.02-2.313 4.054-1.305.993-2.678 1.862-4.19 2.51-1.436.62-2.838 1.331-4.232 2.048-2.534 1.29-5.17 2.31-7.884 3.151-.248.076-.497.159-.76.38.525.117 1.05.24 1.582.337 3.32.614 6.648 1.152 10.037.897 1.388-.104 2.776-.352 4.142-.642 1.982-.42 3.832-.324 5.565.855.662.455 1.415.745 2.243.786.138 0 .27.138.594.31-.366.139-.58.304-.732.263-.732-.2-1.553-.304-2.154-.717-1.85-1.276-3.79-1.304-5.847-.766-2.823.738-5.695.731-8.553.386-2.61-.31-5.206-.8-7.794-1.268a7.511 7.511 0 0 0-2.575-.028c-3.045.483-6 1.269-8.788 2.613-1.554.752-2.92 1.738-4.053 3.041-1.201 1.386-2.423 2.758-3.555 4.192C8.595 55.85 7.8 57.7 7.38 59.733c-.435 2.082-1.063 4.13-1.505 6.212-.69 3.275-.801 6.613-.787 9.95.02 4.668.027 9.336.22 13.997.139 3.296.36 6.585.367 9.888 0 4.171-.125 8.329-.484 12.487-.145 1.689-.076 3.406-.255 5.088-.318 3.083-.718 6.158-1.132 9.226-.56 4.165-.953 8.35-1.098 12.542-.145 4.144-.683 8.233-1.332 12.315a49.653 49.653 0 0 0-.587 7.364c-.041 4.765 0 9.529.407 14.287.11 1.262.049 2.53.118 3.799.11 1.958.269 3.917.407 5.875.124 1.793.242 3.585.373 5.378.062.8.193 1.586.234 2.386.042.82.007 1.648.007 2.544l.014.021Z"/><path d="M16.071 200.787c-.732.207-.78-.2-.787-.635-.034-2.365-.159-4.73-.076-7.095.325-9.584 2.624-18.775 5.792-27.773 1.43-4.055 2.948-8.075 4.398-12.115.172-.49.269-1.028.283-1.552.041-1.399.069-2.806 0-4.199-.117-2.358-.31-4.716-.477-7.074-.027-.435-.09-.862-.09-1.296 0-2.703-.089-5.406.035-8.102.166-3.427.394-6.854 1.036-10.24.649-3.399 1.346-6.798 1.954-10.204.255-1.407.365-2.841.503-4.268.325-3.352.636-6.703.946-10.047.035-.365.042-.73.097-1.096.393-2.634-.055-5.123-.932-7.633-1.112-3.172-1.96-6.433-2.92-9.66-.055-.193-.16-.386-.145-.58.007-.192.076-.503.2-.558.317-.145.476.118.56.393.089.29.158.58.24.869 1.154 3.861 2.258 7.736 3.48 11.577.815 2.551 1.602 5.116 2.5 7.647.897 2.51 1.739 5.04 2.574 7.564.85 2.558 1.643 5.137 2.5 7.702.814 2.447 1.297 4.95 1.594 7.508.166 1.448.504 2.883.828 4.317.173.758.118 1.455-.186 2.144-.242.552-.463 1.11-.76 1.634-.966 1.71-1.863 3.475-2.961 5.096-3.286 4.861-5.84 10.087-8.146 15.452a88.143 88.143 0 0 0-1.284 3.144c-.166.428-.235.889-.339 1.338-.04.158-.013.42-.11.462-.635.324-.656.986-.849 1.517-2.368 6.371-4.743 12.735-6.53 19.299-1.968 7.206-3.093 14.528-3.059 22.009 0 1.131.09 2.262.124 3.4.014.331 0 .655 0 1.034l.007.021Zm10.466-50.962.18.041c.137-.324.282-.641.42-.965 2.34-5.537 4.999-10.895 8.326-15.914 1.263-1.91 2.292-3.979 3.431-5.978.614-1.076.677-2.165.352-3.365-.345-1.283-.552-2.607-.725-3.924-.297-2.247-.663-4.475-1.38-6.64-2.085-6.288-4.156-12.583-6.234-18.872-.042-.13-.145-.24-.29-.462-.152 1.669-.29 3.193-.435 4.71-.235 2.517-.449 5.04-.718 7.557-.2 1.882-.394 3.778-.711 5.64-.697 4.068-1.643 8.102-2.189 12.184-.787 5.923-.876 11.887-.448 17.851.186 2.558.262 5.123.386 7.682.007.144.028.296.042.441l-.007.014ZM68.924 7.281c-.704.49-1.401.98-2.106 1.462-.793.552-1.622 1.055-2.381 1.655-4.998 3.958-10.542 6.847-16.61 8.826-2.65.861-5.24.82-7.87.117-.228-.062-.456-.104-.683-.152-1.14-.227-1.926-.875-2.327-1.972-1.139-3.165-2.326-6.316-2.865-9.66-.076-.462-.18-.91-.283-1.365-.014-.048-.096-.076-.214-.166-.58 3.227-2.492 5.689-4.5 8.109-.981 1.18-1.954 2.372-2.824 3.627-1.72 2.482-2.52 5.282-2.59 8.28-.082 3.635 1.244 6.434 4.813 7.93-.187-.034-.387-.041-.56-.103-3.078-1.076-4.929-3.668-5.032-7.109-.104-3.613.856-6.923 3.01-9.846.828-1.124 1.767-2.172 2.616-3.282.89-1.159 1.809-2.317 2.603-3.544 1.802-2.78 2.133-5.834 1.525-9.033a2.384 2.384 0 0 1-.041-.765c.014-.118.2-.276.318-.29.13-.014.317.096.4.207.09.124.09.31.124.476.69 3.254 1.291 6.536 2.106 9.763.573 2.255 1.436 4.434 2.202 6.633.345.986 1.056 1.593 2.105 1.786 1.147.214 2.286.552 3.438.641.946.076 1.954 0 2.865-.255 4.004-1.09 7.87-2.565 11.398-4.771 2.23-1.393 4.35-2.972 6.517-4.461 1.401-.966 2.796-1.931 4.204-2.876.138-.096.359-.069.538-.103l.083.241h.021Z"/><path d="M48.76 8.653c-.519.11-.96-.096-1.368-.393-.538-.4-1.132-.448-1.795-.42-1.56.055-3.127.034-4.694.02-.76-.006-1.45-.227-1.857-.924-.07.014-.104.007-.131.021-.242.11-.414.545-.746.207-.276-.276-.062-.53.11-.793.45-.703.401-.938-.248-1.496-.152-.131-.317-.248-.435-.407a.76.76 0 0 1 .387-1.2c.214-.062.483-.082.69-.013 1.319.468 2.706.324 4.06.503 1.518.2 2.671.938 3.562 2.158.393.538.8 1.069 1.256 1.545.255.268.628.44.953.648.165.103.345.165.517.248l-.248.303-.014-.007Zm-2.866-1.772c-.497-1.379-1.401-2.247-2.782-2.516-1.436-.283-2.94-.021-4.35-.552-.027-.014-.075-.02-.096 0-.13.076-.359.145-.366.241-.02.166.056.47.16.497.745.227 1.435.73 2.25.62 1.49-.207 2.727.435 3.97 1.09.4.214.814.413 1.214.627v-.007Zm-.38.49c-1.843-1.303-3.638-1.876-5.681-1.51-.048.951.2 1.441 1.015 1.49 1.477.082 2.961.02 4.666.02Zm.794 3.469c-.186.054-.359.158-.545.165-1.36.048-2.734.213-4.073.068-1.346-.144-2.313-1.103-3.134-2.15-.042-.056 0-.18 0-.387.42.359.766.648 1.111.938.773.641 1.643 1.007 2.665.951 1.09-.062 2.188-.117 3.28-.2.434-.034.724.042.703.614h-.007ZM33.247 33.91c-1.07.862-2.264.738-3.5.304.186 0 .373-.014.56 0 .752.062 1.449-.028 2.105-.462.207-.138.517-.124.78-.18l.055.331v.007Z"/></g><path d="M107.59 232.132c12.948 0 23.444-10.484 23.444-23.416S120.538 185.3 107.59 185.3c-12.948 0-23.444 10.484-23.444 23.416s10.496 23.416 23.444 23.416Z" fill="#fff"/><path d="M140.796 236.655c15.102 0 27.345-12.228 27.345-27.311 0-15.084-12.243-27.312-27.345-27.312-15.102 0-27.345 12.228-27.345 27.312 0 15.083 12.243 27.311 27.345 27.311Z" stroke="#C6A35D" stroke-linecap="round" stroke-linejoin="round"/><path d="M106.81 236.655c15.102 0 27.345-12.228 27.345-27.311 0-15.084-12.243-27.312-27.345-27.312-15.102 0-27.344 12.228-27.344 27.312 0 15.083 12.242 27.311 27.344 27.311Z" stroke="#C6A35D" stroke-linecap="round" stroke-linejoin="round"/><path d="M140.796 232.132c12.948 0 23.444-10.484 23.444-23.416S153.744 185.3 140.796 185.3c-12.948 0-23.444 10.484-23.444 23.416s10.496 23.416 23.444 23.416Z" fill="#E21F26"/><path d="M179.31 232.132c12.948 0 23.444-10.484 23.444-23.416S192.258 185.3 179.31 185.3c-12.948 0-23.444 10.484-23.444 23.416s10.496 23.416 23.444 23.416Z" fill="#231F20"/><path d="M179.31 236.655c15.102 0 27.345-12.228 27.345-27.311 0-15.084-12.243-27.312-27.345-27.312-15.102 0-27.344 12.228-27.344 27.312 0 15.083 12.242 27.311 27.344 27.311Z" stroke="#C6A35D" stroke-linecap="round" stroke-linejoin="round"/></g><defs><clipPath id="a"><path fill="#fff" d="M0 0h207v237H0z"/></clipPath></defs></svg>