<svg width="148" height="120" fill="none" xmlns="http://www.w3.org/2000/svg"><g clip-path="url(#a)" fill="#C6A35D"><path d="M127.264 22.29c-.018-2.645-1.594-4.163-4.253-4.258-1.182-.045-2.369-.009-3.592-.009-.666-6.183-4.158-9.335-10.472-10.196.643-.906 1.142-1.454 1.454-2.097.362-.738.951-1.708.72-2.292-.235-.602-1.3-1.064-2.074-1.218-1.015-.204-2.138-.218-3.148 0-.838.18-1.998.652-2.242 1.29-.227.585.548 1.586.951 2.365.317.616.743 1.178 1.264 1.988H93.384c0-1.852-.068-3.51.018-5.159.1-1.839-.77-2.681-2.514-2.686a5392.19 5392.19 0 0 0-22.647 0c-1.721 0-2.65.816-2.573 2.664.073 1.77.014 3.542.014 5.38-15.242 0-30.112-.004-44.978 0-6.595 0-10.726 4.136-10.73 10.704-.01 11.473-.005 22.946 0 34.424 0 6.672 3.972 10.658 10.658 10.717 1.694.014 3.392 0 5.045 0v9.788c-3.686.39-3.66.322-6.635-1.295-.625-.34-2.011-.295-2.374.14-.47.562-.634 1.884-.285 2.537 1.327 2.495 3.628 3.066 6.323 2.785 1.4-.145 2.949-.466 3.828 1.386.185.394 2.092.566 2.25.29 1.369-2.378 3.597-1.857 5.545-1.649 2.36.254 3.755-1.005 4.846-2.622.426-.63.326-2.08-.14-2.695-.33-.44-2.097-.494-2.5-.06-1.966 2.143-4.253 1.179-6.527 1.228v-3.569c1.707-.177 3.909-.045 3.691-2.296-.09-.933-2.038-1.69-3.139-2.528-.199.168-.398.335-.602.503l.118-1.966c2.151 0 4.108.055 6.06-.009 5.4-.181 9.48-4.307 9.612-9.711.054-2.337 0-4.679.013-7.02.018-2.564.639-3.217 3.193-3.221 7.777-.018 15.55-.018 23.327 0 2.64.004 3.361.724 3.365 3.343.01 10.947 0 21.89 0 32.838v1.785H7.144c-4.887 0-7.134 2.278-7.138 7.216v5.435c0 11.813 7.541 19.409 19.313 19.409 23.146.004 46.291-.036 69.441.004 1.803 0 2.265-3.918-.656-3.99H50.028c-10.49 0-20.985.032-31.475-.014-7.057-.031-12.764-4.221-14.087-11.016-.725-3.714-.322-7.654-.272-11.49.005-.486.897-1.106 1.504-1.396.498-.236 1.187-.086 1.79-.086h80.248c2.907-.14 2.323-4.031.158-4.199H79.67v-2.405c0-10.64.004-21.28 0-31.92 0-5.217-2.193-7.392-7.442-7.396-7.85-.01-15.695-.018-23.544 0-4.752.014-6.99 2.32-7.003 7.13-.004 2.11.005 4.225 0 6.336-.018 3.832-2.21 6.369-6.006 6.482-5.2.15-10.413.131-15.617.009-3.995-.09-6.12-3.402-6.079-6.46.168-11.694.063-23.39.072-35.085 0-4.013 2.27-6.287 6.274-6.323 1.73-.013 3.456 0 5.507 0v41.885c0 .53-.194 1.177.041 1.558.521.838 1.15 2.006 1.934 2.192 1.509.358 2.025-.901 2.093-2.251.027-.526.005-1.056.01-1.586V12.121h2.418c25.351 0 50.707.073 76.058-.068 4.48-.027 7.094 3.08 7.084 6.944-.027 11.45-.027 22.901-.027 34.352.041 1.988 3.764 2.228 3.841-.145 0-1.463.005-2.93.005-4.394v-2.722c1.499 0 2.627.054 3.755-.01 2.609-.144 4.217-1.734 4.23-4.325.041-6.49.046-12.986 0-19.477l-.009.014ZM69.826 7.977V4.145h4.158c-.937 3.61-1.277 3.945-4.158 3.827v.005Zm7.347-.068c1.2-4.032 1.323-4.131 4.81-3.769-1.168 4.068-1.268 4.145-4.81 3.769Zm12.275 0H85.23c.625-3.307 1.372-4.023 4.217-3.769v3.77Zm33.667 33.975h-3.678c-.136-1.748-.824-3.487 1.327-4.683.354-.195.349-1.939-.09-2.491-1.862-2.36-1.857-3.148-.086-5.304.466-.566.444-2.437.077-2.632-2.038-1.082-1.282-2.758-1.336-4.489h3.782V41.89l.004-.005Z"/><path d="M97.392 32.064c-3.012 0-6.028-.04-9.04.014-2.011.036-2.85-.802-2.773-2.854.114-2.935.069-5.874.014-8.814-.032-1.64.766-2.373 2.301-2.378 6.405-.018 12.809-.014 19.21 0 1.463 0 2.237.838 2.255 2.26.041 3.162.05 6.328 0 9.494-.027 1.712-1.091 2.31-2.704 2.292-3.089-.036-6.178-.01-9.267-.01l.004-.004Zm-7.654-9.856v5.626h15.59v-5.626h-15.59ZM61.71 32.065c-1.962 0-3.919.045-5.88-.01-3.379-.095-5.888-2.418-6.006-5.485-.145-3.691 1.993-6.318 5.657-6.486 4.059-.186 8.14-.168 12.203-.018 3.614.136 5.915 2.713 5.838 6.142-.072 3.347-2.595 5.766-6.165 5.852-1.884.045-3.768.009-5.652.009l.004-.005Zm-.064-8.113v4.036c1.852 0 3.632-.045 5.408.014 1.418.05 2.632-.58 2.45-1.898-.108-.811-1.426-1.88-2.35-2.057-1.717-.33-3.547-.095-5.504-.095h-.004Zm-5.508-.208h-.888c-.48.797-1.345 1.612-1.313 2.391.027.634 1.123 1.69 1.757 1.699.607.009 1.694-1.069 1.726-1.712.036-.77-.82-1.585-1.287-2.378h.005ZM97.85 92.343v17.479c0 2.514 1.155 4.33 3.302 5.051.715.24 1.513.308 2.274.312 4.108.027 8.216.009 12.329.023.489 0 1.014.041 1.458.217 1.019.408 1.504 1.49 1.287 2.659-.182.969-1.155 1.839-2.165 1.844-4.806.013-9.621.176-14.418-.055-4.316-.208-7.69-3.392-8.529-7.433a11.854 11.854 0 0 1-.235-2.364c-.014-11.876-.01-23.753-.01-35.63 0-4.71 3.194-8.637 7.819-9.425 1.531-.258 3.12-.177 4.683-.213a96.227 96.227 0 0 1 3.959 0c.48.01.666-.154.657-.648a55.452 55.452 0 0 1 0-2.912c.036-1.445 1.023-2.41 2.468-2.414 3.112-.01 6.228-.01 9.34 0 1.44 0 2.437.978 2.464 2.418.018.947.036 1.894 0 2.84-.023.571.199.725.738.716 2.143-.023 4.285.023 6.423-.018 4.529-.082 8.253 2.632 9.566 6.772.245.77.376 1.608.381 2.418.031 6.124.022 12.253.018 18.376 0 1.459-.942 2.46-2.31 2.487-1.382.032-2.387-.978-2.392-2.473-.013-5.852 0-11.704-.009-17.556 0-2.419-1.164-4.226-3.238-4.937-.648-.222-1.364-.317-2.048-.331-2.065-.04-4.135.009-6.201-.027-.724-.014-.942.235-.928.947.054 3.247-1.431 5.557-4.394 6.884-3.456 1.545-7.677-.136-9.271-3.65-.499-1.092-.653-2.234-.603-3.416.018-.475-.109-.765-.652-.752-2.586.06-5.177.037-7.755.186-1.734.1-3.397 1.69-3.755 3.38-.14.674-.23 1.376-.23 2.07-.019 5.724-.01 11.454-.01 17.18l-.013-.005Zm21.963-24.84c0-1.091-.018-2.188.009-3.28.009-.484-.172-.665-.647-.66a100.45 100.45 0 0 1-3.502 0c-.57-.014-.711.24-.706.765.022 2.088 0 4.172.013 6.26.009 1.45 1.105 2.595 2.433 2.586 1.313-.014 2.368-1.119 2.396-2.541.018-1.042 0-2.088.004-3.13Z"/><path d="M130.534 119.932a6.2 6.2 0 0 1-3.927-1.735 1052.048 1052.048 0 0 1-7.505-7.274c-1.105-1.083-1.137-2.528-.14-3.52.964-.964 2.387-.946 3.469.1 2.328 2.242 4.634 4.507 6.948 6.767 1.264 1.232 1.984 1.182 2.994-.226 3.728-5.191 7.447-10.382 11.179-15.564 1.042-1.445 2.804-1.594 3.891-.371.738.833.756 2.034.009 3.094-1.141 1.626-2.306 3.238-3.465 4.855-2.7 3.755-5.399 7.506-8.094 11.261-1.173 1.635-3.094 2.645-5.354 2.613h-.005Zm-9.009-34.547c2.736 0 5.472.028 8.208-.009 1.368-.018 2.187 1.07 2.346 1.984.195 1.106-.516 2.247-1.64 2.61-.276.09-.584.103-.883.103-5.372.005-10.748.005-16.12 0-1.463 0-2.482-1-2.469-2.405.014-1.313 1.015-2.278 2.419-2.283 2.713-.013 5.422 0 8.135 0h.004Zm.037 9.535c2.713 0 5.421-.004 8.134 0 1.232 0 2.152.775 2.383 1.943.199 1.028-.417 2.152-1.468 2.578-.289.117-.629.154-.942.154-5.399.009-10.793.009-16.193 0-1.395 0-2.364-.97-2.373-2.32-.009-1.39.96-2.355 2.405-2.36 2.686-.008 5.372 0 8.058 0l-.004.005Zm-16.497.005c1.364-.01 2.351.974 2.351 2.332 0 1.368-.978 2.351-2.337 2.351-1.332 0-2.387-1.033-2.396-2.333-.005-1.295 1.051-2.337 2.382-2.346v-.004Zm.009-9.535c1.373-.004 2.356.97 2.342 2.333-.009 1.35-1.024 2.36-2.355 2.355-1.3-.009-2.387-1.087-2.383-2.364.009-1.31 1.047-2.315 2.392-2.324h.004Z"/></g><defs><clipPath id="a"><path fill="#fff" d="M0 0h148v120H0z"/></clipPath></defs></svg>