<svg width="115" height="115" fill="none" xmlns="http://www.w3.org/2000/svg"><g clip-path="url(#a)" fill="#C6A35D"><path d="M77.12 92.632c-1.49-4.48-2.959-8.907-4.434-13.335-.489-1.463-.952-2.938-1.519-4.369-.13-.333-.633-.721-.974-.73-2.311-.064-4.622-.035-7.164-.035v1.597c0 12.175-.006 24.35-.006 36.525 0 2.13-.518 2.683-2.603 2.695-1.93.011-3.856.011-5.785 0-2.137-.012-2.655-.536-2.655-2.64 0-12.175-.003-24.35-.006-36.525v-1.643c-2.522 0-4.957-.032-7.392.046-.255.009-.608.644-.718 1.043a5570.549 5570.549 0 0 0-6.024 21.89 4715.04 4715.04 0 0 0-4.255 15.63c-.489 1.805-.946 2.19-2.831 2.199-1.93.008-3.856.011-5.785 0-2.375-.012-3.034-1.003-2.395-3.327 3.306-12.038 6.58-24.083 9.863-36.13.101-.369.156-.748.28-1.36h-1.735c-9.255 0-18.51.009-27.766.003-2.805 0-3.21-.385-3.21-3.147-.006-18.648 0-37.296 0-55.944C.006 10.967.003 6.858 0 2.753 0 .617.619 0 2.765 0l109.467.003c2.132 0 2.768.623 2.768 2.75v67.542c0 .484 0 .968-.014 1.449-.055 1.808-.651 2.41-2.482 2.413-8.966.012-17.932.006-26.898.01h-3.274c2.08 6.243 4.113 12.342 6.18 18.552h12.738c3.76 0 7.52.011 11.28-.018.989-.008 1.837.16 2.279 1.15.46 1.032-.113 1.748-.789 2.423a1657.07 1657.07 0 0 0-5.224 5.215c-1.675 1.681-1.689 2.921-.043 4.578 1.767 1.782 3.601 3.5 5.278 5.366.495.551.839 1.545.738 2.26-.148 1.029-1.157 1.29-2.149 1.29-11.619-.006-23.234.06-34.852-.038-5.863-.049-10.508-4.532-10.997-10.26-.486-5.696 3.399-10.64 9.281-11.804.327-.064.651-.15 1.07-.246l-.002-.003Zm34.117-88.787H3.812v66.442h107.425V3.845ZM96.316 102.01v3.775H81.672v5.346h26.806c-2.137-2.246-4.645-3.97-4.694-7.27-.049-3.326 2.554-5.056 4.633-7.322h-26.77v5.471h14.669ZM36.683 74.218c-3.355 12.297-6.704 24.585-10.065 36.902 3.424.403 3.447.409 4.257-2.538 2.41-8.782 4.804-17.567 7.193-26.352.718-2.64 1.403-5.291 2.12-8.012h-3.505Zm22.525 36.975V74.236h-3.41v36.957h3.41Zm18.542 0V96.555c-3.73-.136-6.985 2.944-7.225 6.733-.266 4.213 2.765 7.592 7.225 7.905Zm6.586-18.474c.035-.258.081-.363.055-.444-1.915-5.803-3.83-11.61-5.776-17.402-.095-.284-.48-.64-.758-.663-.922-.084-1.856-.032-2.944-.032 2.025 6.058 3.962 11.903 5.961 17.726.121.354.685.716 1.09.78.781.124 1.594.035 2.372.035Z"/><path d="M57.502 7.481h47.569c1.822 0 2.473.617 2.473 2.388.003 17.97 0 35.94-.003 53.91 0 2.555-.405 2.984-2.91 2.984-16.818.009-33.64 0-50.459 0-14.264 0-28.529.006-42.797.006-3.843 0-3.924-.081-3.924-3.865V10.008c0-1.959.598-2.53 2.62-2.53h47.425l.005.003Zm46.189 55.536V11.329H11.309v51.676h66.329c.086-.17.164-.255.164-.339.023-1.495.03-2.993.055-4.488.035-1.976.622-2.558 2.63-2.561 4.433-.012 8.867-.006 13.301 0 2.065.003 2.63.573 2.65 2.683.017 1.567.002 3.132.002 4.717h7.251Zm-22.056-.012h11.03v-3.544h-11.03v3.544Z"/><path d="M100.304 24.136c-.35.58-.558 1.133-.94 1.515-6.632 6.67-13.252 13.352-19.98 19.929-.908.887-2.348 1.26-3.58 1.776-2.04.858-4.087 1.718-6.187 2.408-.66.217-1.637.116-2.224-.244-.824-.504-.729-1.442-.359-2.34 1.157-2.808 2.24-5.648 3.413-8.447.27-.643.73-1.248 1.227-1.747 6.397-6.43 12.812-12.836 19.23-19.248 1.351-1.35 2.196-1.367 3.564-.026a245.441 245.441 0 0 1 4.9 4.92c.375.388.59.933.936 1.501v.003Zm-10.516 5.54c-.821-.91-1.686-1.863-2.516-2.782L77.033 37.206c.87.864 1.782 1.77 2.696 2.675 3.337-3.387 6.675-6.775 10.062-10.208l-.003.003Zm5.82-5.5c-1.007-1.014-1.91-1.92-2.81-2.824l-2.917 2.79c.942.956 1.848 1.874 2.744 2.787l2.982-2.75v-.002Zm-23.44 20.24.278.26c1.498-.6 2.996-1.2 4.454-1.782l-2.834-3.228c-.703 1.762-1.3 3.257-1.895 4.752l-.003-.003ZM48.726 54.788c-1.654 1.892-3.245 2.877-5.26 1.883-.842-.414-1.638-1.208-2.104-2.03-.827-1.458-1.388-3.072-2.065-4.616-.205-.47-.43-.93-.76-1.64-1.574 2.184-3.008 4.16-4.422 6.154-.799 1.124-1.805 1.874-3.22 1.932-2.198.087-3.476-1.135-4.292-3.265-2.967 1.953-5.871 3.865-8.856 5.833l-2.048-3.104c3.115-2.057 6.071-4.134 9.152-5.994 1.758-1.064 4.066-.206 5.122 1.602.21.362.382.747.691 1.365 1.559-2.17 2.985-4.202 4.46-6.195 1.628-2.2 4.283-2.518 6.126-.725.434.423.752 1 1.01 1.56.861 1.874 1.67 3.775 2.556 5.788.335-.31.573-.515.795-.736 1.79-1.755 4.093-1.779 5.9.006.787.777 1.478 1.655 2.265 2.547 2.219-1.643 4.211-3.123 6.311-4.68l2.262 2.982c-2.285 1.655-4.434 3.344-6.722 4.822-1.368.883-3.248.4-4.616-.93-.787-.766-1.47-1.635-2.288-2.553l.003-.006ZM16.778 25.961V22.34h42.456v3.622H16.778Zm.015 11.169h42.455v3.594H16.793V37.13Zm42.461-7.29v3.452h-42.42V29.84h42.42Z"/></g><defs><clipPath id="a"><path fill="#fff" d="M0 0h115v115H0z"/></clipPath></defs></svg>