<svg width="138" height="110" fill="none" xmlns="http://www.w3.org/2000/svg"><g clip-path="url(#a)" fill="#C6A35D"><path d="M126.02 77.186v17.747c0 1.736.068 3.482-.027 5.214-.172 3.215-2.645 5.627-5.843 5.781-.829.041-1.662.014-2.491.005-4.598-.037-6.944-2.372-6.944-6.97 0-6.27.023-12.541.036-18.812v-3.083h-6.218c0 4.044.004 8.089 0 12.129-.005 3.4 0 6.801-.055 10.202-.081 5.065-2.717 7.549-7.849 7.454-4.43-.081-6.885-2.838-6.871-7.708.027-8.538.027-17.076.1-25.614.009-1.156-.123-1.99-1.445-2-3.225-.027-6.45-.008-9.92-.008v3.092c0 9.522.005 19.048-.004 28.57-.005 4.421-2.392 6.765-6.885 6.792-2.187.014-4.38.041-6.567-.009-4.226-.091-6.577-2.471-6.581-6.629-.01-9.748-.073-19.497.031-29.245.023-2.05-.607-2.653-2.568-2.503-2.024.158-4.08.122-6.114.013-1.595-.081-2.084.517-2.061 2.086.104 8.307.14 16.613.136 24.92 0 1.342-.077 2.775-.544 4.004-1.182 3.106-4.733 4.652-8.52 3.949-3.474-.644-5.598-3.047-5.639-6.597-.077-6.724-.072-13.453-.1-20.182v-1.918h-5.851v2.675c0 6.502.014 13 0 19.502-.01 4.13-2.469 6.579-6.622 6.656a60.2 60.2 0 0 1-2.038 0c-4.1-.091-6.6-2.598-6.613-6.72-.027-7.25-.01-14.5-.01-22.072-1.693 0-3.238.004-4.787 0-4.24-.023-6.603-2.326-6.662-6.525C.322 58.459.159 45.542 0 32.619c-.05-3.99 1.033-6.017 4.122-6.937 3.478-1.034 7.822-.717 9.87 1.94.475.617 1.553 1.043 2.372 1.075 4.276.15 8.62-.526 12.692 1.469 5.734 2.816 9.29 7.39 9.756 13.711.222 3.052 1.295 5.092 3.451 6.892.517.431.979.925 1.753 1.665 1.282-3.351 2.482-6.475 3.673-9.604.322-.848.594-1.714.929-2.553 1.29-3.233 2.727-4.257 6.155-4.266a6957.58 6957.58 0 0 1 27.412-.01c3.564.005 5.073 1.18 6.346 4.64 1.426 3.885 2.921 7.744 4.547 12.037 2.5-3.015 5.915-4.493 6.065-9.145.28-8.724 7.922-15.475 16.668-15.589 1.209-.013 2.418-.045 3.623 0 2.174.086 3.941-.118 5.784-1.922 2.537-2.49 6.147-1.814 9.213-.794 2.967.989 3.641 3.668 3.564 6.652-.149 5.74-.154 11.485-.176 17.23-.009 1.727-.181 3.27-2.383 3.355-1.707.068-2.518-1.07-2.473-3.536.096-5.591.177-11.186.39-16.772.081-2.177-.734-2.898-2.885-2.948-2.174-.05-2.94.649-2.944 2.834-.018 10.13-.15 20.255-.254 30.384-.041 3.768-.598 4.276-4.389 4.226-5.512-.077-11.024-.1-16.537-.227-1.852-.04-3.052.254-2.989 2.54.082 2.856.136 3.123 2.777 3.169 8.08.14 16.156.195 24.236.362 1.757.037 2.537-.62 2.473-2.348-.023-.603 0-1.21 0-1.814.018-1.51.775-2.512 2.26-2.598 1.554-.09 2.36 1.002 2.473 2.417.431 5.336-1.273 9.485-7.614 9.055-1.195-.082-2.4-.014-3.945-.014l.005-.01Zm-57.5-16.26v.136c-8.003 0-16.007-.027-24.01.041-.752.005-1.961.422-2.165.952-1.191 3.074.081 4.82 3.42 4.856 4.302.046 8.605.005 12.908.01 4.221 0 4.489.285 4.489 4.52-.01 10.352.036 20.703-.036 31.055-.014 1.959.602 2.77 2.604 2.63 1.725-.127 3.47-.019 5.209-.028 2.844-.013 2.921-.09 2.926-2.942.004-10.502 0-21.007.009-31.509 0-3.273.43-3.709 3.619-3.713 4.832-.01 9.665-.113 14.493.036 2.433.077 2.845-1.002 2.867-3.124.028-2.126-.543-2.979-2.78-2.952-7.85.096-15.704.037-23.558.037l.005-.005Zm20.676-4.888c-1.87-5.055-3.55-9.721-5.38-14.328-.213-.535-1.278-1.034-1.953-1.038-8.9-.068-17.8-.064-26.7-.01-.634 0-1.64.404-1.83.88-1.893 4.734-3.655 9.527-5.526 14.496h41.394-.005Zm-69.412 17.13v-.317c4.077 0 8.158-.104 12.23.036 2.5.087 2.54-1.305 2.567-3.165.032-2.013-.779-2.63-2.704-2.58-5.584.141-11.169.15-16.753.196-3.937.031-4.272-.24-4.33-4.222-.155-10.048-.245-20.096-.367-30.143-.037-2.83-.136-2.92-2.954-2.898-2.7.023-2.871.186-2.817 3.075.086 4.683.25 9.363.317 14.047.109 7.857.2 15.715.231 23.568.01 1.864.72 2.499 2.596 2.44 3.994-.127 7.994-.037 11.993-.037h-.009Zm-4.108-10.904h17.719l.367-.644c-3.148-3.01-6.373-5.953-9.421-9.064-2.306-2.353-2.5-5.904-.752-8.551 1.83-2.776 5.168-3.868 8.357-2.74.448.16.896.314 1.716.604-1.327-3.374-3.27-5.654-6.11-7.16-3.524-1.863-7.333-1.442-11.079-1.22-.448.028-1.186 1.243-1.186 1.905.009 8.375.122 16.754.221 25.129.01.584.11 1.17.164 1.745l.004-.004Zm106.544-.635c.054-.168.185-.376.185-.585.136-8.837.245-17.679.399-26.516.023-1.301-.566-1.773-1.753-1.755-2.414.041-4.842-.081-7.238.159-4.18.426-8.438 4.285-9.058 8.084.616-.185 1.168-.362 1.725-.517 4.04-1.129 7.646.903 8.792 4.925.765 2.693-.104 4.933-1.993 6.792-2.98 2.929-6.042 5.776-9.072 8.656.154.25.303.498.457.752h17.551l.005.005Zm-23.865 7.994c-.793.462-1.568 1.079-2.446 1.387-1.21.422-1.55 1.143-1.545 2.376.041 8.602.041 17.203-.004 25.804-.01 1.986.734 2.916 2.794 2.893 1.962-.022 2.673-.966 2.655-2.811-.028-3.469.136-6.946.013-10.41-.226-6.403.888-12.905-1.467-19.235v-.004Zm-55.181 2.163a803.1 803.1 0 0 0-3.483-1.23c-.693 2.06-1.835 3.941-1.885 5.845-.19 7.772-.077 15.553-.004 23.329.014 1.741 1.24 2.226 2.808 2.199 1.63-.027 2.577-.698 2.573-2.43-.005-2.644-.01-5.287-.01-7.935V71.78v.005Zm72.388 5.368c0 7.36.054 14.587-.032 21.81-.023 2.094 1.078 2.326 2.708 2.303 1.617-.023 2.963 0 2.917-2.317-.113-5.88-.036-11.766-.036-17.652v-4.14h-5.562l.005-.004Zm-98.745.712c0 7.386.082 14.537-.045 21.683-.04 2.28 1.128 2.371 2.822 2.389 1.717.018 2.894-.131 2.844-2.371-.117-5.428-.04-10.855-.04-16.283v-5.418h-5.58Zm82.561-18.277c3.542-3.596 6.966-7.078 10.391-10.552 1.028-1.042 1.485-2.366.303-3.328-.643-.521-2.4-.653-2.926-.167-3.795 3.505-7.405 7.209-11.097 10.873 1.16 1.106 2.124 2.026 3.33 3.174ZM41.285 56.35c-1.232-1.152-2.242-2.05-3.198-3.002-2.3-2.285-4.565-4.602-6.87-6.882-.975-.962-2.243-1.37-3.158-.236-.52.64-.797 2.285-.38 2.747 3.143 3.496 6.486 6.815 9.724 10.143 1.44-1.029 2.469-1.759 3.882-2.77Z"/><path d="M30.596 10.905c-.263 4.978-1.4 8.565-3.38 11.83-3.482 5.744-10.476 5.799-14.027.058-3.17-5.132-3.637-10.664-1.44-16.282 1.39-3.55 4.203-5.482 8.013-5.695 3.999-.227 7.056 1.641 8.99 5.006 1.051 1.827 1.472 4.022 1.84 5.083h.004Zm-15.36 2.19-.325.177c.715 2.249 1.141 4.656 2.219 6.715 1.617 3.083 4.706 3.015 6.21-.095 1.1-2.272 1.88-4.752 2.427-7.223.485-2.181-.489-4.163-2.106-5.677-2.835-2.662-6.708-1.614-7.795 2.122-.371 1.283-.43 2.652-.634 3.985l.005-.004Zm112.165-.675c0 4.107-.883 7.952-3.732 11.076-3.664 4.022-9.086 3.804-12.265-.571-2.541-3.496-3.864-7.513-3.905-11.843-.054-5.827 4.466-10.828 9.816-11.073 5.385-.245 9.67 4.153 10.082 10.37.045.675.004 1.36.004 2.04Zm-4.253.18-.403-.222c-.226-1.405-.172-2.947-.761-4.176-.566-1.179-1.626-2.448-2.781-2.956-3.383-1.483-7.632 2.244-7.002 6.325.417 2.698 1.39 5.4 2.6 7.863 1.413 2.879 4.167 2.997 5.788.213 1.237-2.127 1.735-4.684 2.559-7.046Zm-45.864 8.865c-.263 3.314-1.128 6.815-3.37 9.803-2.926 3.89-7.976 3.95-10.657-.095-2.618-3.95-4.466-8.366-3.098-13.236 1.21-4.307 5.684-6.96 9.806-6.257 4.022.685 7.278 4.879 7.32 9.785Zm-4.692.82c.09-3.54-2.034-6.016-4.235-5.903-2.142.109-4.317 2.498-3.86 4.756.472 2.336 1.292 4.652 2.306 6.815.888 1.9 2.587 1.896 3.588-.027 1.064-2.04 1.698-4.307 2.2-5.636v-.004Z"/></g><defs><clipPath id="a"><path fill="#fff" d="M0 0h138v110H0z"/></clipPath></defs></svg>