<svg width="44" height="71" fill="none" xmlns="http://www.w3.org/2000/svg"><g clip-path="url(#a)" fill="#C6A35D"><path d="M38.57 25.596c0 3.568.042 7.136-.01 10.701-.084 5.775-2.793 9.765-8.231 11.561-5.802 1.916-11.709 1.927-17.444-.323-4.78-1.875-7.32-5.57-7.394-10.73-.104-7.348-.09-14.698-.022-22.048.057-6.066 2.92-10.54 8.42-12.923C20.218-.906 26.577-.664 32.484 3.15c3.883 2.509 5.882 6.29 6.039 10.915.13 3.84.027 7.687.027 11.531h.02ZM8.98 27.444v4.001h.976c1.96.004 3.92-.016 5.88.02a1.687 1.687 0 0 1 1.673 1.72c-.007.909-.66 1.599-1.613 1.674-.427.034-.857.02-1.285.023-1.861.002-3.721 0-5.566 0-.54 3.977.806 6.98 3.609 8.694 2.288 1.401 4.84 1.853 7.447 2.04 3.545.25 7.038-.017 10.324-1.532 3.439-1.586 5.192-4.817 4.527-9.202h-.98c-1.93-.004-3.857.005-5.787-.019-.873-.01-1.44-.476-1.617-1.345-.177-.868.172-1.532.952-1.888.367-.168.828-.174 1.25-.177 2.074-.017 4.15-.008 6.283-.008v-4.001h-.958c-1.898 0-3.797.011-5.695-.006-1.093-.009-1.875-.741-1.89-1.72-.014-.978.741-1.725 1.853-1.762 1.04-.035 2.082-.01 3.123-.01h3.56v-4.028c-2.235 0-4.402.01-6.57-.004-1.236-.01-1.965-.663-1.963-1.702.001-1.022.764-1.707 1.964-1.716 1.867-.015 3.736-.002 5.603-.008.322 0 .644-.03.945-.046.616-4.878-1.465-8.966-5.644-11.138-3.491-1.816-7.196-2.074-10.988-1.323-2.995.592-5.601 1.929-7.487 4.442-1.792 2.388-2.167 5.11-1.931 8.07h1.183c1.899.003 3.797-.02 5.695.02.97.02 1.675.81 1.656 1.734-.018.91-.678 1.613-1.634 1.648-1.16.043-2.326.02-3.49.023H8.962v3.91c.103.048.156.095.21.095 2.082.009 4.164.009 6.244.025 1.265.01 2.075.683 2.097 1.711.024 1.067-.81 1.78-2.11 1.781-2.11.006-4.22 0-6.423 0l.002.004Z"/><path d="M20.243 67.504V55.23c-1.79-.284-3.578-.477-5.328-.861-4.124-.903-7.797-2.682-10.679-5.88C1.788 45.774.373 42.56.17 38.932-.039 35.223.028 31.497 0 27.778c-.007-1.05.527-1.755 1.358-1.95.78-.183 1.6.223 1.937 1.035.134.325.158.714.16 1.074.013 2.89.01 5.782.007 8.672 0 4.828 1.697 8.822 5.74 11.622 2.567 1.78 5.47 2.718 8.536 3.132 4.997.675 9.908.382 14.568-1.735 5.115-2.322 7.969-6.293 8.193-11.972.13-3.317.053-6.64.057-9.963 0-.873.39-1.478 1.174-1.796.706-.286 1.36-.08 1.816.495.25.317.461.775.456 1.166-.059 4.148.105 8.322-.327 12.432-.559 5.321-3.567 9.234-8.136 11.928-3.426 2.02-7.206 2.819-11.108 3.173-.182.017-.36.054-.54.085-.026.004-.046.033-.116.087v12.2c.355.016.678.041 1.002.041 3.001.004 6.002-.009 9.003.015.443.004.925.085 1.318.275.737.358 1.066 1.02.882 1.837-.18.799-.742 1.242-1.547 1.36-.151.022-.306.01-.46.01-7.961 0-15.924 0-23.886-.003-.273 0-.558.004-.817-.07a1.738 1.738 0 0 1-1.246-1.905c.112-.856.891-1.504 1.913-1.51 3.093-.016 6.186-.005 9.279-.007h1.03l-.003-.002Z"/></g><defs><clipPath id="a"><path fill="#fff" d="M0 0h44v71H0z"/></clipPath></defs></svg>