<svg width="539" height="238" fill="none" xmlns="http://www.w3.org/2000/svg"><g opacity=".4" clip-path="url(#a)"><path d="m0 237.83 87.89-86.29 60.82-40.28 40.42-51.92L255.33 0l31.52 25.4 11.69-10.29 80.61 58.69 159.7 164.03H0Z" fill="#F4EDD9"/><path d="m3.09 237.83 101.86-42.76 43.76-83.81-62.3 45.61-83.32 80.96Z" fill="#C6A35D"/><path d="m168.74 94.29 20.39-32.91-4.07 49.88-16.32-16.97Z" fill="#FFF8E6"/><path d="m104.95 195.07 71.2 13.72 8.9-97.53s.09-15.2-6.86-15.2-9.46-1.76-9.46-1.76l-63.79 100.78.01-.01Z" fill="#D6B57B"/><path d="m279.58 94.29 5.05-44.78 13.91-32.82-13.13 79.77-5.83-2.17Z" fill="#FFF8E6"/><path d="m257.93 53.59-2.6-33.93s5.93 8.99 7.42 18.45c1.48 9.46 5.1 5.84 7.23 2.87 2.13-2.97 5.84-5.66 8.25-1.11s6.4 9.64 6.4 9.64l-6.49 58.97-19.03-31.7-1.18-23.18v-.01Z" fill="#D8C4A3"/><path d="m262.75 148.16 14.66-32.28 2.17-21.58s-7.37.46-9.6-11.4c-2.23-11.87-2.41-23.36-7.23-26.33l-4.82-2.97 4.82 94.57v-.01Z" fill="#D6B57B"/><path d="M255.33 19.66s-2.78 7.32-3.24 16.78c-.46 9.46-5.01 14.09-11.31 15.3-6.3 1.21-11.59.19-18.54 8.07-6.95 7.88-9.92 12.52-15.95 11.5-6.03-1.02-11.87-14.72-11.87-14.72l-5.28 4.8-4.33 52.65 74.88-26.05-4.35-68.33h-.01Z" fill="#F4E0B3"/><path d="m176.15 208.79 86.59-60.63-4.82-94.57s-4.45 16.69-15.76 26.52c-11.31 9.83-34.67 7.23-44.32 14.19-9.64 6.95-12.79 16.97-12.79 16.97l-8.9 97.53v-.01Z" fill="#D8C4A3"/><path d="m349.34 136.1 187.24 101.73L376.79 76.77l-27.45 59.33Z" fill="#C6A35D"/><path d="m298.54 16.69-6.57 39.88 11.57 7.49 5.19-13.81-10.19-33.56Z" fill="#F4E0B3"/><path d="m269.98 188.02 79.36-51.92 27.44-59.34-78.25-60.08s-.46 17.34 2.6 28.74c3.06 11.4 3.06 14.19-.28 14.46-3.34.28-8.9-6.68-8.9-6.68s-2.78 2.5-5.84 11.4-6.95 28.18-8.62 46.63c-1.67 18.45-7.51 76.77-7.51 76.77v.02Z" fill="#D6B57B"/><path d="m271.73 186.88 20.22-133.66s-7.83 10.9-10.99 32.82-10.99 101.99-10.99 101.99l1.75-1.14.01-.01Z" fill="#D8C4A3"/><path d="m3.09 237.83 101.86-42.76 71.2 13.72 86.6-60.63 14.66-32.29-7.43 72.15 79.36-51.92 187.24 101.73H3.09Z" fill="#F4E0B3"/></g><defs><clipPath id="a"><path fill="#fff" d="M0 0h538.85v237.83H0z"/></clipPath></defs></svg>