<svg width="726" height="319" fill="none" xmlns="http://www.w3.org/2000/svg"><g clip-path="url(#a)" stroke="#C6A35D" stroke-linecap="round" stroke-linejoin="round"><path d="M.684 346.315s77.338-80.482 130.911-117.15c53.573-36.667 62.351-40.583 62.351-40.583S255.313 108.4 290.386 77.1c35.073-31.3 56.007-48.415 56.007-48.415l47.243 35.695 17.051-15.157s95.961 66.503 129.078 93.394c33.118 26.892 185.551 201.836 185.551 201.836"/><path d="m59.836 341.359 65.92-25.659 107.639 18.58 127.615-93.394 20.948-35.34-6.262 98.406 107.57-74.321 80.004 46.252v-29.315s10.666 11.2 38.423 24.92c29.344 14.513 37.069 45.471 37.069 45.471"/><path d="m410.7 49.223 5.36 66.01-17.051-7.818-17.051 57.205s-8.04-6.846-13.755-31.779c-5.729-24.934-12.99-25.919-12.99-25.919s-12.703 40.09-41.937 49.387c-29.221 9.284-36.536 2.451-52.602 14.185-16.081 11.735-18.022 17.608-18.022 17.608v-24.933l-16.559 24.933-4.868-18.58-95.469 146.191 68.19-127.131m205.063-81.181-17.051 98.159m-26.745-98.638 5.797 133.964m-118.358-52.797-9.257 146.191m249.871-104.636 45.602-95.598"/></g><defs><clipPath id="a"><path fill="#fff" d="M0 0h726v319H0z"/></clipPath></defs></svg>