<svg width="40" height="57" fill="none" xmlns="http://www.w3.org/2000/svg"><g clip-path="url(#a)" fill="#C6A35D"><path d="M40 22.305c-.716 1.87-1.686 5.637-3.515 8.922-4.461 8.013-9.313 15.8-14.03 23.67-1.65 2.763-2.674 2.804-4.372.078-5.113-8.203-10.385-16.318-15.19-24.699C-4.462 17.458 2.863 2.548 17.42.226 29.065-1.634 40.118 8.227 40 22.31v-.006ZM20.213 52.129c5.035-8.506 10.053-16.418 14.497-24.645 3.917-7.252 1.74-15.622-4.692-20.677-5.947-4.674-14.598-4.55-20.462.303-6.225 5.15-8.23 13.496-4.284 20.523 4.586 8.15 9.71 15.984 14.935 24.502l.006-.006Z"/><path d="M20.1 10.02c5.432.06 9.906 4.67 9.84 10.134-.064 5.513-4.632 9.956-10.117 9.843-5.557-.113-9.947-4.633-9.847-10.128.1-5.482 4.651-9.914 10.125-9.854v.006ZM13.42 20.1c.03 3.666 2.93 6.594 6.539 6.6 3.609 0 6.503-2.916 6.538-6.6.035-3.854-2.887-6.783-6.686-6.705-3.675.077-6.415 2.952-6.39 6.706Z"/></g><defs><clipPath id="a"><path fill="#fff" d="M0 0h40v57H0z"/></clipPath></defs></svg>