<svg width="484" height="75" viewBox="0 0 484 75" fill="none" xmlns="http://www.w3.org/2000/svg">
<path d="M75.1363 1.03516H133.885V16.4073H98.4015V28.9246H131.726V44.5163H98.4015V58.6441H135.897V73.7966H75.1363V1.03516Z" fill="#E21F26"/>
<path d="M218.459 1.03516H241.797L269.489 41.1125V1.03516H286.499V74.1992H263.051L235.505 34.7075V73.7966H218.459V1.03516Z" fill="#E21F26"/>
<path d="M321.506 1.03516H297.509V73.76H321.506V1.03516Z" fill="#E21F26"/>
<path d="M332.48 0.668945H355.819L383.474 40.7463V0.668945H400.484V73.7964H377.072L349.527 34.3047V73.3938H332.48V0.668945Z" fill="#E21F26"/>
<path d="M181.366 29.5469H167.905V15.4191H180.818C180.818 15.4191 187 16.3341 186.597 23.0686C186.195 29.8031 181.366 29.5469 181.366 29.5469ZM209.058 69.4046C208.509 67.538 208.399 68.7458 208.655 57.2899C208.911 45.834 206.497 42.906 206.497 42.906C203.388 37.3793 199.254 35.9153 199.254 35.9153C199.254 35.9153 209.058 31.7429 209.058 19.921C209.058 2.4626 192.377 1.07178 192.377 1.07178H144.018L143.871 73.7967H167.941V44.5164H176.025C177.159 44.5164 180.269 44.8092 181.586 45.4314C183.927 46.566 184.402 47.847 184.622 48.2862C185.28 49.6404 184.878 59.5957 184.878 59.5957C184.878 59.5957 184.878 67.9406 185.829 70.6124C186.78 73.3209 188.792 73.7967 188.792 73.7967H211.655C211.655 73.7967 209.643 71.2713 209.094 69.4046" fill="#E21F26"/>
<path d="M429.602 42.0642L437.979 19.6282L446.099 42.0642H429.565H429.602ZM456.488 1.07178H426.2L399.606 73.7967H417.493L424.59 57.3997H450.526L457.622 73.7967H483.046L456.452 1.07178H456.488Z" fill="#E21F26"/>
<path d="M37.7877 30.5351H24.326V16.4073H37.239C37.239 16.4073 43.4211 17.3224 43.0187 24.0568C42.6163 30.7913 37.7877 30.5351 37.7877 30.5351ZM37.7877 58.6807H24.326V44.553H37.239C37.239 44.553 43.4211 45.5046 43.0187 52.2025C42.6163 58.9369 37.7877 58.6807 37.7877 58.6807ZM57.3948 35.1101C57.3948 35.1101 65.9181 30.2422 65.5157 19.7746C64.8572 2.35279 48.3594 1.07178 48.3594 1.07178H0V73.7235C0 73.7235 54.2489 73.6869 52.4199 73.7967C50.5908 73.9431 58.4191 73.6869 61.7479 69.9902C63.0648 68.5262 68.2592 64.5368 68.8079 55.0207C69.5395 41.7348 57.3948 35.0735 57.3948 35.0735" fill="#E21F26"/>
</svg>
