<svg width="483" height="254" viewBox="0 0 483 254" fill="none" xmlns="http://www.w3.org/2000/svg">
<path d="M413.455 158.478C412.944 158.478 412.432 158.258 412.067 157.855C411.336 157.013 337.37 72.1149 321.473 59.1861C306.928 47.3561 266.985 19.4842 259.603 14.3566L252.33 20.8393C251.672 21.4254 250.722 21.462 250.028 20.9492L228.065 4.32129C224.995 6.88507 215.566 14.7595 201.826 27.0657C184.978 42.1187 155.158 81.0149 154.866 81.4177C154.683 81.6741 154.427 81.8572 154.171 81.9671C153.989 82.0404 149.311 84.3111 123.949 101.672C120.916 103.759 117.298 106.47 113.205 109.802C112.437 110.425 111.268 110.315 110.647 109.546C110.025 108.777 110.135 107.605 110.903 106.982C115.069 103.576 118.76 100.793 121.866 98.6683C143.939 83.542 150.59 79.733 152.198 78.854C155.341 74.7519 182.932 39.0055 199.377 24.3188C216.37 9.15584 226.712 0.658753 226.822 0.548877C227.48 0.0361217 228.393 -0.000503651 229.088 0.512252L251.015 17.1036L258.25 10.6575C258.872 10.1081 259.822 10.0349 260.516 10.511C260.991 10.8406 307.732 43.2907 323.811 56.3293C339.964 69.4412 411.811 151.922 414.844 155.401C415.502 156.17 415.429 157.306 414.661 158.001C414.333 158.294 413.894 158.441 413.455 158.441V158.478Z" fill="#C6A35D"/>
<path d="M371.1 145.036C370.296 145.036 369.529 144.487 369.31 143.644C369.31 143.498 365.509 129.177 352.134 122.548C344.094 118.556 338.904 115.003 335.981 112.696V123.061C335.981 123.72 335.615 124.306 335.067 124.636C334.519 124.965 333.788 124.965 333.24 124.636L295.087 102.551L252.659 131.888C251.819 132.474 250.686 132.254 250.101 131.411C249.516 130.569 249.736 129.434 250.576 128.848L293.955 98.8514C294.539 98.4485 295.307 98.4119 295.891 98.7782L332.29 119.838V108.667C332.29 107.935 332.728 107.239 333.423 106.982C334.117 106.689 334.921 106.872 335.433 107.422C335.469 107.458 340.659 112.806 353.742 119.252C368.688 126.65 372.672 142.069 372.854 142.729C373.11 143.718 372.489 144.706 371.539 144.963C371.393 144.999 371.246 145.036 371.1 145.036Z" fill="#C6A35D"/>
<path d="M243.267 123.647C243.267 123.647 243.194 123.647 243.158 123.647C242.134 123.573 241.403 122.731 241.44 121.705L243.084 96.1043L236.689 106.872C236.579 107.092 236.397 107.275 236.214 107.422L227.882 113.538C227.078 114.124 225.908 113.941 225.324 113.135C224.739 112.329 224.922 111.157 225.726 110.571L233.766 104.675L243.815 87.6805C244.254 86.948 245.131 86.6183 245.935 86.8747C246.739 87.1311 247.287 87.9002 247.214 88.7426L245.094 121.925C245.021 122.877 244.217 123.647 243.267 123.647Z" fill="#C6A35D"/>
<path d="M139.371 114.71C139.115 114.71 138.896 114.674 138.64 114.564C137.726 114.161 137.288 113.099 137.69 112.147L151.686 79.5866C152.088 78.671 153.148 78.2315 154.098 78.6343C155.012 79.0372 155.45 80.0993 155.048 81.0516L141.052 113.612C140.759 114.307 140.065 114.71 139.371 114.71Z" fill="#C6A35D"/>
<path d="M139.371 114.71C139.042 114.71 138.676 114.601 138.384 114.417C137.544 113.868 137.288 112.733 137.836 111.89L165.171 69.9908C165.573 69.3682 166.304 69.0385 166.999 69.185C167.729 69.2949 168.278 69.8077 168.46 70.5402L169.812 75.7044L175.66 66.8776C176.098 66.2184 176.939 65.8888 177.706 66.1451C178.474 66.3649 179.022 67.0974 179.022 67.9032V74.8986C180.41 73.5435 182.311 71.9319 184.942 69.9908C189.766 66.4748 193.274 66.0719 197.696 65.5591C201.022 65.1929 205.115 64.7167 211.218 62.7756C224.483 58.5637 230.477 39.958 230.55 39.7749C230.805 38.9325 231.646 38.3831 232.523 38.5296C233.656 38.6761 237.566 40.1411 240.417 52.6304C241.805 58.6003 243.413 62.3361 244.692 64.5336L251.965 40.0679C252.111 39.5551 252.476 39.1522 252.951 38.9325C253.427 38.7127 254.011 38.7127 254.45 38.9325L259.968 41.4596L257.593 12.2326C257.52 11.2437 258.25 10.328 259.274 10.2548C260.297 10.2182 261.174 10.9141 261.247 11.9396L263.878 44.2798C263.915 44.939 263.623 45.5617 263.111 45.9279C262.563 46.2942 261.905 46.3674 261.284 46.0744L254.852 43.1078L247.104 69.1118C246.922 69.6978 246.447 70.1739 245.862 70.3571C245.277 70.5402 244.619 70.3937 244.144 69.9908C243.706 69.6245 239.686 65.8888 236.799 53.4361C235.483 47.6859 234.058 44.8292 233.035 43.4008C230.769 49.0411 224.264 62.446 212.241 66.255C205.809 68.306 201.497 68.7822 198.025 69.185C193.676 69.6978 191.045 69.9908 186.988 72.9208C179.972 78.0484 178.802 80.6854 178.802 80.722C178.474 81.5278 177.596 82.0039 176.756 81.8208C175.915 81.6377 175.294 80.9418 175.294 80.0628V73.9097L170.543 81.0883C170.141 81.6743 169.447 82.0039 168.716 81.8941C168.022 81.7842 167.437 81.2348 167.254 80.5389L165.902 75.4114L140.833 113.868C140.467 114.417 139.882 114.71 139.298 114.71H139.371Z" fill="#C6A35D"/>
<path d="M245.387 90.4642C245.387 90.4642 245.168 90.4642 245.058 90.4642C244.071 90.2811 243.413 89.3288 243.56 88.3399L251.892 40.2508C252.074 39.2619 253.025 38.5294 254.011 38.7491C254.998 38.9323 255.656 39.8845 255.51 40.8734L247.177 88.9625C247.031 89.8416 246.264 90.4642 245.387 90.4642Z" fill="#C6A35D"/>
<path d="M235.154 107.752C234.168 107.752 233.364 106.982 233.327 105.994L230.477 40.3608C230.44 39.3353 231.207 38.4929 232.231 38.4563C233.217 38.383 234.094 39.1888 234.131 40.2143L236.981 105.847C237.018 106.873 236.251 107.715 235.227 107.752H235.154Z" fill="#C6A35D"/>
<path d="M174.856 119.252C174.856 119.252 174.783 119.252 174.746 119.252C173.723 119.178 172.955 118.336 173.028 117.311L175.404 79.9526C175.477 78.9271 176.208 78.1214 177.341 78.2312C178.364 78.3045 179.131 79.1469 179.058 80.1724L176.683 117.53C176.61 118.519 175.806 119.252 174.856 119.252Z" fill="#C6A35D"/>
<path d="M294.978 102.258C294.722 102.258 294.43 102.184 294.174 102.075C293.26 101.635 292.895 100.536 293.297 99.6207L315.626 52.7768C316.064 51.8612 317.16 51.4949 318.074 51.8978C318.988 52.3373 319.353 53.4361 318.951 54.3517L296.622 101.196C296.293 101.855 295.672 102.221 294.978 102.221V102.258Z" fill="#C6A35D"/>
<path d="M33.3914 123.207H53.089V234.402H30.8333V148.515L12.0859 163.825L0.976318 149.321L33.3914 123.207Z" fill="#C6A35D"/>
<path d="M109.843 218.8C112.291 218.8 114.886 218.47 117.627 217.847C120.185 217.225 122.67 216.309 125.082 215.137C127.53 213.855 129.467 212.17 130.966 210.046C132.464 208.142 133.195 205.798 133.195 203.051C133.085 196.568 130.819 191.99 126.361 189.353C121.902 186.899 116.019 185.69 108.71 185.69H97.8927V168.147H108.052C115.69 168.147 121.683 166.865 126.032 164.338C130.381 161.884 132.61 158.294 132.72 153.496C132.72 150.64 132.245 148.222 131.294 146.318C130.235 144.413 128.809 142.912 127.019 141.85C123.401 139.835 118.979 138.81 113.68 138.81C104.873 138.81 96.577 140.787 88.72 144.706L87.4409 126.87C96.5405 123.244 106.883 121.413 118.431 121.303C122.049 121.303 125.886 121.632 130.052 122.255C134.291 122.987 138.274 124.416 141.965 126.54C145.766 128.555 148.909 131.411 151.357 135.147C153.696 138.883 154.902 143.754 155.012 149.797C154.902 157.232 152.929 162.982 149.128 167.011C145.218 171.15 140.284 174.3 134.364 176.424V176.754C141.454 177.816 146.753 180.746 150.261 185.507C153.769 190.268 155.524 196.165 155.524 203.197C155.414 209.68 154.135 215.1 151.723 219.459C149.055 223.707 145.62 227.113 141.381 229.641C139.261 230.703 137.105 231.655 134.876 232.497C132.537 233.34 130.162 234.109 127.713 234.732C122.743 235.794 117.846 236.343 113.095 236.343C102.717 236.343 92.9957 235.134 84.0057 232.681L85.2848 213.709C92.9226 217.005 101.109 218.69 109.916 218.8H109.843Z" fill="#C6A35D"/>
<path d="M209.208 236.343C200.839 236.233 194.115 234.255 189.035 230.446C183.846 226.82 179.935 222.096 177.268 216.272C174.6 210.449 172.882 204.223 172.005 197.63C171.165 191.147 170.726 184.994 170.726 179.134C170.726 172.029 171.347 164.997 172.626 158.111C173.905 151.299 175.952 145.146 178.839 139.615C181.799 134.085 185.782 129.617 190.753 126.247C195.613 122.951 201.789 121.303 209.208 121.303C217.247 121.413 223.898 123.171 229.088 126.577C234.168 130.203 238.078 134.817 240.855 140.421C243.633 146.025 245.533 152.251 246.593 159.064C247.543 165.876 248.018 172.542 248.018 179.134C248.018 185.727 247.543 192.136 246.593 198.729C245.533 205.321 243.56 211.474 240.709 217.225C237.968 222.865 234.021 227.406 228.942 230.923C223.862 234.439 217.284 236.233 209.244 236.343H209.208ZM209.208 219.788C213.447 219.788 216.736 218.287 219.075 215.32C221.304 212.463 222.875 208.911 223.825 204.626C224.885 200.267 225.506 195.799 225.726 191.257V179.134C225.726 175.325 225.653 171.077 225.58 166.389C225.36 161.81 224.739 157.379 223.679 153.02C222.729 148.552 221.121 144.963 218.928 142.179C216.59 139.432 213.374 137.967 209.244 137.894C205.334 138.004 202.264 139.432 200.035 142.179C197.806 144.926 196.161 148.552 195.101 153.02C194.261 157.379 193.676 161.847 193.347 166.389C193.128 171.077 193.018 175.325 193.018 179.134C193.018 182.65 193.128 186.679 193.347 191.257C193.676 195.835 194.261 200.267 195.101 204.626C196.161 208.874 197.806 212.427 200.035 215.32C202.264 218.287 205.334 219.788 209.244 219.788H209.208Z" fill="#C6A35D"/>
<path d="M299.509 223.488H299.692L310.107 191.807H321.546L305.32 234.841C304.479 237.186 303.602 239.493 302.725 241.764C301.848 244.071 300.752 246.122 299.436 247.917C298.194 249.711 296.622 251.14 294.722 252.202C292.712 253.337 290.227 253.887 287.303 253.887C284.599 253.887 281.968 253.484 279.337 252.715L280.104 244.364C281.383 244.877 283.32 245.133 285.915 245.133C288.217 245.06 290.008 244.364 291.287 242.936C292.566 241.544 293.224 239.676 293.224 237.369L276.669 191.807H289.094L299.509 223.488Z" fill="#C6A35D"/>
<path d="M362.951 232.754C358.967 235.061 353.997 236.197 348.077 236.197C333.167 235.977 325.639 228.469 325.456 213.709C325.456 207.263 327.137 201.842 330.499 197.447C333.861 193.125 338.868 190.891 345.556 190.781C353.449 190.855 358.931 193.272 361.964 198.106C364.815 202.941 366.24 209.24 366.167 216.968H336.237C336.529 220.448 337.772 223.121 340.037 224.953C342.267 226.931 345.117 227.919 348.625 227.919C351.366 227.919 353.961 227.48 356.373 226.564C358.712 225.795 360.941 224.77 363.024 223.524V232.717L362.951 232.754ZM355.386 209.24C355.276 206.384 354.509 204.003 353.12 202.062C351.659 200.084 349.356 199.095 346.213 199.022C343.144 199.095 340.768 200.047 339.087 201.879C337.406 203.783 336.456 206.237 336.237 209.204H355.386V209.24Z" fill="#C6A35D"/>
<path d="M376.911 194.114C381.735 191.99 386.741 190.891 391.967 190.818C404.575 190.635 410.788 196.751 410.642 209.094V214.661C410.642 218.873 410.678 222.499 410.788 225.539C410.897 228.725 411.08 231.985 411.299 235.208H401.396C401.067 232.571 400.884 230.41 400.884 228.725H400.701C399.349 231.069 397.485 232.901 395.074 234.219C392.625 235.574 390.03 236.233 387.326 236.233C383.416 236.16 379.944 235.061 376.984 232.864C373.841 230.666 372.233 227.517 372.197 223.341C372.197 220.082 372.927 217.445 374.389 215.43C375.741 213.416 377.459 211.914 379.615 210.962C381.844 209.9 384.22 209.204 386.778 208.838C389.373 208.545 391.821 208.398 394.16 208.398H400.372C400.372 204.919 399.605 202.465 398.034 201.073C396.462 199.718 394.014 199.059 390.652 199.059C385.718 199.132 381.26 200.707 377.276 203.783L376.947 194.114H376.911ZM382.977 222.682C382.977 224.477 383.672 225.795 385.097 226.638C386.376 227.553 388.057 227.993 390.14 227.993C393.612 227.919 396.243 226.638 398.034 224.11C399.642 221.583 400.446 218.617 400.372 215.174H393.575C392.917 215.174 392.223 215.21 391.565 215.357C390.103 215.54 388.715 215.87 387.436 216.382C386.157 216.895 385.097 217.664 384.329 218.653C383.416 219.679 382.977 220.997 382.977 222.682Z" fill="#C6A35D"/>
<path d="M421.971 191.843H431.984V201.696H432.167C432.495 199.461 433.738 197.117 435.858 194.7C437.941 192.246 440.645 190.928 444.007 190.818C445.14 190.818 446.273 190.928 447.442 191.148V202.538C446.273 201.915 444.592 201.622 442.399 201.622C440.206 201.622 438.416 202.245 437.173 203.49C435.931 204.662 435.017 206.201 434.396 208.105C433.848 209.9 433.482 211.804 433.373 213.819C433.263 215.796 433.19 217.628 433.19 219.312V235.244H421.934V191.88L421.971 191.843Z" fill="#C6A35D"/>
<path d="M480.113 200.926C478.505 200.304 476.933 199.828 475.399 199.498C473.9 199.205 472.11 199.059 470.027 199.059C468.455 199.059 466.993 199.352 465.641 199.974C464.179 200.707 463.412 201.989 463.375 203.857C463.448 205.468 464.472 206.64 466.482 207.299C467.432 207.702 468.492 208.068 469.661 208.398C470.83 208.728 472 209.131 473.206 209.57C474.485 209.973 475.727 210.486 476.897 211.072C478.03 211.731 479.016 212.537 479.93 213.416C480.88 214.368 481.648 215.503 482.196 216.859C482.708 218.25 482.963 219.972 482.963 221.986C482.854 227.004 480.99 230.593 477.409 232.864C473.827 235.061 469.625 236.16 464.801 236.16C460.488 236.087 456.213 235.501 452.01 234.292L452.668 225.026C456.213 226.931 459.904 227.883 463.777 227.883C465.349 227.883 466.957 227.48 468.565 226.711C470.246 225.978 471.123 224.587 471.159 222.572C471.159 221.437 470.904 220.521 470.392 219.789C469.844 219.129 469.076 218.58 468.126 218.177C466.153 217.408 463.924 216.675 461.402 215.98C460.233 215.577 459.063 215.101 457.894 214.551C456.724 214.002 455.664 213.269 454.678 212.354C453.691 211.438 452.997 210.339 452.485 208.984C451.864 207.702 451.571 206.091 451.571 204.186C451.608 199.461 453.399 196.055 456.87 193.894C460.123 191.77 464.033 190.708 468.565 190.708C471.196 190.708 473.498 190.855 475.472 191.148C477.372 191.477 479.163 191.88 480.844 192.32L480.076 200.817L480.113 200.926Z" fill="#C6A35D"/>
</svg>
