<svg width="207" height="237" viewBox="0 0 207 237" fill="none" xmlns="http://www.w3.org/2000/svg">
<g id="_&#208;&#160;&#194;&#187;&#208;&#160;&#209;&#149;&#208;&#160;&#226;&#132;&#150;_1" clip-path="url(#clip0_289_1047)">
<path id="Vector" d="M30.7963 89.4714L103.552 89.2231C103.552 89.2231 92.4924 119.713 98.5468 131.346C104.601 142.978 119.361 194.519 119.022 216.514C118.684 238.51 9.65792 246.901 7.35907 218.804C5.06022 190.699 33.7441 137.793 36.7678 126.574C39.7915 115.356 30.7963 89.4714 30.7963 89.4714Z" fill="#231F20"/>
<g id="Group">
<path id="Vector_2" d="M71.5612 48.4177C70.4704 49.3416 69.1795 49.5347 67.8264 49.3692C67.1361 49.2865 66.853 48.6728 67.0808 48.0109C67.2948 47.3972 67.7712 47.0317 68.3096 46.7559C69.7663 46.0113 71.2298 45.2942 72.7002 44.584C74.4606 43.7428 74.4951 43.7565 74.861 41.8742C75.5238 38.4956 75.9725 35.0962 75.5376 31.6418C75.1303 28.4286 74.5089 25.2638 73.646 22.1472C73.0247 19.8993 72.3689 17.6584 72.2446 15.3072C72.2239 14.9417 72.2032 14.5763 72.2239 14.2108C72.2515 13.8454 72.4034 13.5627 72.8935 13.6592C72.935 14.3832 72.935 15.1141 73.0316 15.8312C73.3354 18.079 73.8048 20.3061 74.6332 22.4161C76.1175 26.2222 78.6786 29.125 82.2822 31.0833C85.0298 32.5795 87.9845 33.531 91.0289 34.1723C94.8465 34.979 98.6848 35.6685 102.516 36.3925C105.43 36.951 108.35 37.4889 111.132 38.5645C111.919 38.8679 112.657 38.861 113.458 38.5645C115.364 37.8612 117.297 37.2337 119.216 36.558C120.589 36.0754 121.977 36.0891 123.351 36.5097C124.435 36.8407 125.477 37.2889 126.533 37.6888C126.996 37.8681 127.452 38.0681 127.942 38.268C128.197 37.8129 127.928 37.5164 127.748 37.2337C127.106 36.2202 126.43 35.2272 125.795 34.2068C125.16 33.1863 124.297 32.4278 123.206 31.9245C122.481 31.5866 121.735 31.2901 121.024 30.9247C120.465 30.6351 119.913 30.3041 119.416 29.9249C118.877 29.5112 118.512 28.9458 118.38 28.2632C118.235 27.5047 118.525 27.0772 119.299 27.0634C119.823 27.0565 120.362 27.1668 120.873 27.2978C125.684 28.5045 129.288 31.3522 131.856 35.5237C133.126 37.5923 134.624 39.4264 136.454 41.0261C138.897 43.1567 141.113 45.5217 143.115 48.0729C145.456 51.0516 148.051 53.7614 150.896 56.2574C152.249 57.4434 153.533 58.7121 154.851 59.9395C156.384 61.3736 156.984 63.194 157.067 65.2349C157.157 67.5103 156.874 69.7581 156.563 72.006C155.79 77.6393 154.285 83.0934 152.49 88.4716C149.874 96.3114 147.568 104.241 145.235 112.163C143.35 118.576 140.865 124.747 137.62 130.608C136.129 133.304 134.383 135.821 132.249 138.048C130.924 139.434 129.426 140.571 127.728 141.481C126.554 142.109 125.415 142.812 124.352 143.605C123.047 144.577 121.66 145.053 120.051 144.798C118.636 144.57 117.214 144.357 115.819 144.033C113.893 143.591 112.298 142.564 111.194 140.923C109.82 138.875 108.439 136.827 107.245 134.676C106.527 133.38 106.03 131.932 105.65 130.491C104.815 127.34 104.104 124.147 103.352 120.975C102.551 117.59 102.088 114.163 101.964 110.688C101.95 110.253 101.923 109.819 101.895 109.391C101.895 109.295 101.847 109.205 101.778 108.936C101.646 109.288 101.536 109.495 101.481 109.709C100.01 115.418 99.1957 121.203 99.2578 127.105C99.313 132.587 100.383 137.896 102.109 143.081C103.151 146.212 104.235 149.328 105.402 152.41C107.494 157.933 109.061 163.615 110.614 169.303C111.594 172.903 112.602 176.495 113.458 180.122C114.245 183.432 114.535 186.831 114.804 190.216C114.963 192.175 115.074 194.14 115.205 196.105C115.226 196.422 115.205 196.746 115.205 197.07C114.57 197.056 114.597 196.656 114.577 196.291C114.473 194.898 114.349 193.498 114.28 192.106C113.9 184.542 112.512 177.171 110.248 169.945C108.854 165.497 107.708 160.974 106.279 156.534C105.015 152.603 103.497 148.756 102.137 144.853C100.783 140.978 99.6582 137.041 99.1059 132.966C98.6227 129.422 98.4915 125.864 98.7125 122.292C99.0576 116.707 100.135 111.267 101.764 105.923C101.867 105.578 101.95 105.206 101.964 104.848C102.282 97.2629 103.849 89.9196 106.237 82.7417C107.045 80.3077 107.998 77.922 108.95 75.3294C108.522 74.7571 108.046 73.9849 107.445 73.3367C106.127 71.9232 104.718 70.5925 103.379 69.1996C102.157 67.924 100.949 66.6346 99.7894 65.3039C99.3614 64.8143 99.03 64.2007 98.7746 63.6008C98.602 63.194 98.5675 62.6906 98.6089 62.2355C98.671 61.4495 99.2095 60.9599 100.003 60.9393C100.459 60.9324 100.935 61.0151 101.377 61.1392C101.791 61.2564 102.199 61.4288 102.565 61.6495C105.312 63.3181 107.846 65.2763 110.131 67.5379C111.553 68.9445 111.85 70.6545 111.132 72.5162C110.787 73.4195 110.372 74.2952 109.965 75.1708C109.799 75.5294 109.758 75.8328 109.965 76.2051C111.739 79.3148 111.719 82.5762 110.683 85.879C110.186 87.4649 109.558 89.0094 108.895 90.5401C107.397 93.9946 105.837 97.4215 104.325 100.869C103.966 101.69 103.738 102.572 103.379 103.4C102.682 105.027 102.551 106.723 102.551 108.474C102.551 114.046 103.434 119.486 104.863 124.857C105.416 126.947 105.878 129.063 106.375 131.173C106.783 132.876 107.445 134.462 108.384 135.938C109.254 137.317 110.145 138.689 110.973 140.096C112.292 142.33 114.259 143.522 116.799 143.846C117.925 143.991 119.05 144.143 120.175 144.26C121.321 144.377 122.371 144.081 123.275 143.371C124.697 142.254 126.243 141.35 127.824 140.475C130.047 139.247 131.821 137.489 133.382 135.503C136.364 131.69 138.552 127.429 140.471 123.016C142.605 118.121 144.275 113.06 145.697 107.916C147.699 100.655 150.053 93.505 152.359 86.341C153.83 81.7695 155.086 77.1429 155.769 72.3783C156.066 70.3029 156.246 68.2067 156.398 66.1175C156.46 65.2625 156.363 64.3868 156.246 63.5318C156.046 62.0632 155.369 60.822 154.271 59.8153C152.401 58.0985 150.502 56.416 148.707 54.6302C146.961 52.8926 145.228 51.1206 143.654 49.2313C141.038 46.1078 138.331 43.0808 135.287 40.3641C133.782 39.0196 132.429 37.5302 131.531 35.7237C130.082 32.8208 127.624 30.9247 125.049 29.2009C123.613 28.2425 121.86 27.877 120.134 27.6219C119.816 27.5736 119.354 27.684 119.154 27.9046C118.829 28.2425 118.933 28.7665 119.223 29.1044C119.623 29.5732 120.072 30.0559 120.589 30.3731C121.356 30.835 122.205 31.166 123.019 31.5383C124.524 32.221 125.705 33.2552 126.554 34.6756C127.307 35.9306 128.059 37.1786 128.846 38.4128C128.97 38.6059 129.253 38.7231 129.488 38.8127C130.234 39.1023 130.993 39.3505 131.739 39.6401C132.022 39.7505 132.277 39.9435 132.491 40.2814C131.78 40.3986 131.076 40.5641 130.365 40.633C129.336 40.7227 128.591 40.2676 128.294 39.2885C128.156 38.8334 127.928 38.6335 127.534 38.4818C126.444 38.0612 125.38 37.5785 124.283 37.1993C122.522 36.5925 120.783 36.5856 119.022 37.3716C117.842 37.9026 116.565 38.2197 115.336 38.6403C114.991 38.7576 114.659 38.8955 114.3 39.2058C115.136 39.454 115.95 39.7643 116.799 39.9366C118.173 40.2124 119.402 40.7847 120.493 41.6328C121.701 42.5775 122.875 43.5635 124.027 44.5771C124.449 44.9494 124.863 45.1838 125.429 45.239C126.492 45.3493 127.548 45.5079 128.597 45.6734C128.908 45.7217 129.198 45.8803 129.481 46.1009C128.342 46.556 127.155 46.3629 125.891 46.4732C126.381 47.3627 126.816 48.2039 127.307 49.0107C127.403 49.1692 127.693 49.252 127.907 49.3002C129.384 49.6243 130.296 50.569 130.82 51.9273C131.117 52.7064 131.386 53.4925 131.614 54.2923C131.98 55.5817 132.498 56.7953 133.264 57.9123C133.851 58.7604 134.369 59.6637 134.949 60.5187C135.825 61.8149 136.944 62.8285 138.393 63.4836C139.056 63.787 139.705 64.1593 140.285 64.5937C141.507 65.5107 141.755 66.5312 141.141 67.9309C140.782 68.7515 140.395 69.572 139.974 70.3649C138.718 72.7231 137.745 75.2053 136.909 77.7427C136.322 79.5217 135.598 81.2317 134.645 82.852C134.307 83.4243 134.01 84.0311 133.789 84.6517C132.167 89.1335 130.448 93.574 128.459 97.9041C128.308 98.2282 128.239 98.6006 128.183 98.9591C127.935 100.773 127.728 102.593 127.458 104.406C127.141 106.544 126.809 108.681 126.395 110.798C126.243 111.563 125.94 112.343 125.546 113.018C124.773 114.335 123.896 115.604 123.026 116.866C122.647 117.411 122.205 117.921 121.742 118.397C121.473 118.679 121.128 118.914 120.769 119.079C119.809 119.52 118.843 118.914 118.774 117.859C118.719 116.99 119.105 116.238 119.464 115.487C121.411 111.398 123.378 107.309 125.311 103.213C125.995 101.765 126.637 100.304 127.238 98.8212C127.452 98.2834 127.583 97.6697 127.59 97.0905C127.617 94.1877 127.548 91.2917 127.59 88.3888C127.638 85.155 127.776 81.9281 127.852 78.7012C127.99 72.7024 128.107 66.7036 128.232 60.7048C128.287 58.0709 128.328 55.4369 127.838 52.8306C127.638 51.7618 127.334 50.7138 127.065 49.6174C126.036 49.5692 125.139 49.5623 124.248 49.4864C123.42 49.4106 122.585 49.3347 121.784 49.1348C120.583 48.8314 119.506 48.859 118.498 49.7071C118.021 50.107 117.407 50.3483 116.855 50.6517C116.157 51.0378 115.44 51.4033 114.756 51.817C113.859 52.3617 112.892 52.865 111.864 52.8306C110.849 52.7892 109.937 52.9271 108.992 53.2443C108.612 53.3753 108.115 53.3339 107.715 53.2236C106.638 52.9271 106.272 51.9549 106.893 51.0309C107.204 50.569 107.625 50.169 108.025 49.776C108.881 48.9348 109.737 48.1005 110.621 47.2869C111.18 46.7697 111.767 46.2733 112.374 45.8044C113.665 44.8115 114.97 43.8531 116.22 42.7223C115.626 42.936 115.011 43.1084 114.439 43.3704C112.298 44.3633 110.034 44.908 107.742 45.3424C107.418 45.4045 107.079 45.4459 106.748 45.4459C105.885 45.439 105.409 44.9356 105.374 44.0668C105.347 43.3428 105.657 42.7499 106.175 42.3086C106.783 41.7983 107.445 41.3432 108.122 40.9226C108.867 40.4607 109.661 40.0607 110.607 39.5367C109.689 39.385 108.978 39.2678 108.267 39.1575C106.161 38.8334 104.07 38.4542 101.957 38.2128C98.2154 37.7853 94.4875 38.0681 90.7942 38.7231C85.5061 39.6608 80.4873 41.4398 75.5928 43.598C75.1579 43.791 74.9439 44.0806 74.7437 44.4943C74.3087 45.3907 73.8393 46.2802 73.2801 47.0938C72.8521 47.7144 72.3067 48.2729 71.5267 48.5004C71.6923 48.3073 71.8442 48.1005 72.0306 47.935C73.0799 46.9697 73.7012 45.763 74.2052 44.3564C73.9774 44.3978 73.8807 44.3909 73.8048 44.4323C72.072 45.2666 70.3324 46.1009 68.6065 46.9559C68.3511 47.0869 68.1025 47.2938 67.9369 47.5282C67.4743 48.1763 67.7781 48.9141 68.572 49.0038C68.9931 49.052 69.4349 49.0038 69.856 48.9279C70.4359 48.8176 70.9951 48.6245 71.5612 48.4659V48.4177ZM128.314 95.7391L128.522 95.8011C128.632 95.5667 128.756 95.3391 128.853 95.0978C130.254 91.533 131.642 87.9682 133.057 84.4103C133.402 83.5484 133.837 82.721 134.224 81.8729C134.866 80.4456 135.632 79.0666 136.108 77.5841C137.096 74.4882 138.4 71.544 139.94 68.6963C140.209 68.1998 140.451 67.6827 140.63 67.1449C141.01 66.0003 140.754 65.2418 139.74 64.5523C139.215 64.2007 138.649 63.9111 138.076 63.6353C136.792 63.0009 135.694 62.1459 134.873 60.9806C133.119 58.5053 131.352 56.0368 130.648 52.996C130.482 52.2927 130.171 51.6101 129.833 50.962C129.398 50.1415 128.687 49.7209 127.7 49.7484C127.714 49.9139 127.7 50.0173 127.728 50.107C128.832 53.2443 128.984 56.4988 128.915 59.774C128.777 66.6002 128.625 73.4333 128.473 80.2595C128.439 81.8936 128.328 83.5209 128.314 85.155C128.287 88.6784 128.308 92.2019 128.308 95.7253L128.314 95.7391ZM75.1717 43.3911C77.1806 42.5913 79.0514 41.7983 80.9499 41.0881C87.5427 38.6403 94.315 37.1855 101.398 37.6061C103.124 37.7095 104.843 37.8681 106.534 38.3301C107.646 38.6335 108.833 38.661 109.986 38.8058L110.034 38.5507C108.819 38.2335 107.618 37.8474 106.389 37.6061C102.433 36.8407 98.457 36.1443 94.5013 35.3927C90.8287 34.6894 87.2251 33.7379 83.8079 32.1796C80.4873 30.6696 77.6845 28.539 75.7032 25.4292C75.5859 25.25 75.4271 25.0983 75.151 24.7673C75.7723 27.9804 76.4005 30.9798 76.4212 34.0551C76.4419 37.1717 75.9034 40.2055 75.1717 43.3773V43.3911ZM123.793 44.8184C123.599 44.6115 123.427 44.3702 123.206 44.1909C122.081 43.3015 120.969 42.3913 119.802 41.5639C119.271 41.1847 118.636 40.9089 118.014 40.702C116.882 40.3159 115.729 39.9711 114.563 39.6953C113.962 39.5505 113.272 39.4264 112.706 39.585C110.662 40.1573 108.854 41.2398 107.148 42.4741C106.596 42.874 106.21 43.4256 106.065 44.1082C105.927 44.7495 106.147 44.9977 106.803 44.8598C109.019 44.3909 111.256 44.0186 113.334 43.0395C114.169 42.6464 115.081 42.3913 115.971 42.1224C116.558 41.9431 117.076 42.0879 117.517 42.743C117.172 43.0739 116.889 43.4532 116.516 43.6876C113.403 45.6251 110.835 48.197 108.246 50.7344C107.901 51.0723 107.625 51.5205 107.432 51.9687C107.197 52.5065 107.466 52.8719 108.039 52.7547C108.681 52.6237 109.295 52.3548 109.91 52.0928C110.055 52.0307 110.165 51.8032 110.227 51.6239C110.642 50.4311 111.442 49.5967 112.526 48.9693C113.065 48.659 113.555 48.2453 114.01 47.8178C114.922 46.9628 115.881 46.1561 117.131 45.9216C118.408 45.6872 119.651 45.3424 120.914 45.039C121.818 44.8184 122.799 44.8736 123.8 44.8046L123.793 44.8184ZM109.268 75.0123C109.71 73.9159 110.076 73.0265 110.428 72.137C111.201 70.2063 110.759 68.5239 109.268 67.1518C107.287 65.3246 105.222 63.587 102.875 62.2286C102.337 61.9184 101.736 61.6632 101.129 61.5116C99.9551 61.2151 99.0507 62.0494 99.2578 63.2422C99.3614 63.8145 99.5823 64.4075 99.9067 64.8971C100.397 65.6418 100.984 66.3313 101.598 66.9863C104.063 69.634 106.934 71.8956 109.268 75.0123ZM109.468 76.3568C106.009 84.7344 103.662 93.2154 102.91 102.103C103.103 101.827 103.227 101.531 103.358 101.228C104.573 98.3799 105.775 95.5253 107.01 92.6845C107.756 90.9745 108.598 89.3059 109.316 87.589C110.096 85.7411 110.614 83.8105 110.697 81.7833C110.773 79.9285 110.435 78.1633 109.468 76.3499V76.3568ZM127.113 101.952L126.913 101.89C126.851 101.958 126.768 102.021 126.734 102.103C124.69 106.358 122.633 110.612 120.617 114.88C120.175 115.811 119.851 116.79 119.513 117.762C119.437 117.976 119.561 118.259 119.588 118.514C119.858 118.472 120.189 118.514 120.396 118.376C121.418 117.714 122.219 116.831 122.833 115.783C123.254 115.066 123.634 114.308 124.165 113.68C125.726 111.832 125.981 109.598 126.216 107.344C126.285 106.723 126.375 106.096 126.478 105.482C126.678 104.31 126.899 103.138 127.113 101.965V101.952ZM126.727 49.0451C126.395 48.1143 125.967 47.3765 125.443 46.6939C125.325 46.5422 125.056 46.4319 124.849 46.4181C123.254 46.3353 121.653 46.2733 120.058 46.2181C119.837 46.2112 119.588 46.2526 119.388 46.3491C117.856 47.0731 116.33 47.8178 114.804 48.5694C114.508 48.7142 114.204 48.8934 113.99 49.1279C113.099 50.1415 112.25 51.1826 111.325 52.2789C112.374 52.0169 113.368 51.8101 114.245 51.224C114.853 50.8172 115.515 50.5069 116.151 50.1484C116.875 49.7415 117.614 49.3623 118.304 48.9072C118.857 48.5418 119.43 48.3211 120.086 48.4108C120.714 48.4935 121.342 48.5763 121.956 48.7142C123.489 49.0589 125.042 49.0107 126.72 49.0382L126.727 49.0451ZM128.929 39.0058C129.198 40.2814 129.723 40.44 131.034 39.7091L128.929 39.0058ZM121.791 45.5079C122.778 45.8527 123.979 45.9009 124.6 45.6251C123.668 45.308 122.792 45.3493 121.791 45.5079ZM125.16 45.6872C125.643 46.1009 125.96 45.963 126.271 45.8389L125.16 45.6872Z" fill="#C6A35D"/>
<path id="Vector_3" d="M2.34718 193.092C1.86394 193.181 1.65684 193.064 1.63613 192.602C1.53948 190.609 1.44283 188.61 1.31166 186.617C1.22882 185.321 1.13217 184.025 0.952684 182.735C0.655836 180.584 0.54538 178.433 0.497056 176.261C0.428022 173.33 0.131173 170.407 0.0552352 167.476C-0.0276062 164.208 0.0138145 160.94 0.0345249 157.678C0.0552352 154.734 0.552284 151.845 0.92507 148.935C1.27715 146.191 1.63613 143.447 1.82252 140.689C2.25053 134.435 2.63022 128.188 3.61742 121.989C4.13518 118.728 4.15589 115.418 4.41822 112.129C4.85313 106.606 4.9843 101.076 4.83242 95.5392C4.74958 92.5398 4.40441 89.5473 4.3768 86.5548C4.33538 81.0249 4.3906 75.4881 4.51486 69.9582C4.57009 67.5242 5.06714 65.1316 5.76439 62.7872C6.09576 61.6702 6.39951 60.5394 6.62732 59.4017C7.02082 57.4711 7.77329 55.6921 9.00211 54.1683C10.4656 52.3549 12.0258 50.6173 13.5929 48.8797C14.4558 47.9213 15.6018 47.349 16.7409 46.7905C19.4608 45.4459 22.3465 44.6806 25.3288 44.2117C25.9984 44.1083 26.7302 44.2186 27.2686 43.6256C27.3446 43.5429 27.6 43.5567 27.745 43.598C28.4284 43.798 29.0635 43.598 29.6987 43.405C32.6326 42.4948 35.4837 41.364 38.2106 39.9367C39.5085 39.261 40.8822 38.7094 42.1594 38.0061C43.5263 37.2545 44.9001 36.4823 46.1565 35.5514C48.193 34.0414 48.6141 31.8142 48.4277 29.463C48.2344 26.9532 47.6062 24.5399 46.4464 22.2851C46.2669 21.9335 46.1013 21.5612 45.9425 21.1957C45.9149 21.1406 45.9425 21.0647 45.9425 20.9475C46.3705 20.7751 46.5776 20.9958 46.7433 21.3681C47.2058 22.4024 47.7581 23.4022 48.124 24.4709C48.9317 26.8497 49.4978 29.2768 49.1388 31.828C48.9041 33.4898 48.1792 34.8481 46.8261 35.8824C45.5214 36.8753 44.1476 37.7441 42.6357 38.3922C41.1998 39.0128 39.7984 39.723 38.4039 40.4401C35.8703 41.7295 33.2332 42.7499 30.5202 43.5912C30.2716 43.667 30.0231 43.7497 29.7608 43.9704C30.2854 44.0876 30.8101 44.2117 31.3417 44.3082C34.6622 44.9219 37.9897 45.4597 41.3793 45.2046C42.7669 45.1012 44.1545 44.853 45.5214 44.5634C47.5027 44.1428 49.3528 44.2393 51.0856 45.4184C51.7483 45.8734 52.5008 46.163 53.3292 46.2044C53.4672 46.2044 53.5984 46.3423 53.9229 46.5147C53.557 46.6526 53.343 46.8181 53.1911 46.7767C52.4593 46.5767 51.6378 46.4733 51.0372 46.0596C49.1871 44.784 47.2472 44.7564 45.19 45.2943C42.3665 46.032 39.4947 46.0251 36.6366 45.6804C34.0271 45.3701 31.4314 44.8805 28.8426 44.4117C27.9728 44.2531 27.1375 44.2462 26.2676 44.3841C23.2232 44.8668 20.2685 45.6528 17.4795 46.9974C15.9263 47.7489 14.5594 48.7349 13.4272 50.0381C12.226 51.424 11.0041 52.7962 9.87194 54.2304C8.5948 55.8507 7.80091 57.6986 7.3798 59.7327C6.94488 61.815 6.31667 63.8629 5.87485 65.9452C5.1845 69.2204 5.07404 72.5577 5.08785 75.8949C5.10856 80.5629 5.11547 85.2309 5.30876 89.8921C5.44683 93.1879 5.66774 96.4769 5.67465 99.7797C5.67465 103.951 5.55038 108.109 5.1914 112.267C5.04643 113.956 5.11547 115.673 4.93598 117.355C4.61842 120.438 4.21802 123.513 3.80381 126.581C3.24463 130.746 2.85113 134.931 2.70616 139.123C2.56119 143.267 2.02272 147.356 1.37379 151.438C0.987201 153.879 0.807711 156.334 0.787001 158.802C0.74558 163.567 0.787001 168.331 1.1943 173.089C1.30476 174.351 1.24263 175.619 1.31166 176.888C1.42212 178.846 1.5809 180.805 1.71897 182.763C1.84323 184.556 1.96059 186.348 2.09175 188.141C2.15388 188.941 2.28505 189.727 2.32647 190.527C2.36789 191.347 2.33337 192.175 2.33337 193.071L2.34718 193.092Z" fill="#C6A35D"/>
<path id="Vector_4" d="M16.0712 200.787C15.3395 200.994 15.2911 200.587 15.2842 200.152C15.2497 197.787 15.1255 195.422 15.2083 193.057C15.5328 183.473 17.8316 174.282 21.0003 165.284C22.4293 161.229 23.9481 157.209 25.3978 153.169C25.5704 152.679 25.667 152.141 25.6808 151.617C25.7222 150.218 25.7499 148.811 25.6808 147.418C25.5635 145.06 25.3702 142.702 25.2045 140.344C25.1769 139.909 25.1147 139.482 25.1147 139.048C25.1147 136.345 25.025 133.642 25.1493 130.946C25.3149 127.519 25.5428 124.092 26.1848 120.706C26.8337 117.307 27.531 113.908 28.1385 110.502C28.3939 109.095 28.5043 107.661 28.6424 106.234C28.9669 102.882 29.2775 99.5314 29.5882 96.1873C29.6227 95.8218 29.6296 95.4564 29.6848 95.091C30.0783 92.457 29.6296 89.9679 28.7529 87.458C27.6414 84.2863 26.7923 81.0249 25.8327 77.7979C25.7775 77.6049 25.6739 77.4118 25.6877 77.2187C25.6946 77.0257 25.7637 76.7154 25.8879 76.6602C26.2055 76.5154 26.3643 76.7775 26.4471 77.0533C26.5369 77.3429 26.6059 77.6325 26.6887 77.922C27.8416 81.7833 28.9462 85.6584 30.1681 89.499C30.9827 92.0502 31.7697 94.6152 32.6671 97.1457C33.5646 99.6556 34.4068 102.186 35.2421 104.71C36.0912 107.268 36.8851 109.847 37.7412 112.412C38.5558 114.859 39.039 117.362 39.3359 119.92C39.5015 121.368 39.8398 122.803 40.1643 124.237C40.3369 124.995 40.2816 125.692 39.9779 126.381C39.7363 126.933 39.5153 127.491 39.2185 128.015C38.252 129.725 37.3546 131.49 36.2569 133.111C32.9709 137.972 30.4166 143.198 28.1108 148.563C27.6621 149.604 27.2341 150.652 26.8268 151.707C26.6611 152.135 26.5921 152.596 26.4885 153.045C26.4471 153.203 26.4747 153.465 26.3781 153.507C25.743 153.831 25.7222 154.493 25.529 155.024C23.1611 161.395 20.7863 167.759 18.9983 174.323C17.0308 181.529 15.9055 188.851 15.9401 196.332C15.9401 197.463 16.0298 198.594 16.0643 199.732C16.0781 200.063 16.0643 200.387 16.0643 200.766L16.0712 200.787ZM26.5369 149.825L26.7163 149.866C26.8544 149.542 26.9994 149.225 27.1375 148.901C29.4777 143.364 32.1356 138.006 35.463 132.987C36.7263 131.077 37.755 129.008 38.894 127.009C39.5084 125.933 39.5706 124.844 39.2461 123.644C38.9009 122.361 38.6938 121.037 38.5212 119.72C38.2244 117.473 37.8585 115.245 37.1406 113.08C35.0557 106.792 32.9847 100.497 30.9067 94.2084C30.8653 94.0774 30.7618 93.9671 30.6168 93.7464C30.4649 95.415 30.3269 96.9389 30.1819 98.4558C29.9472 100.973 29.7332 103.496 29.4639 106.013C29.2637 107.895 29.0704 109.791 28.7529 111.653C28.0556 115.721 27.1098 119.755 26.5645 123.837C25.7775 129.76 25.6877 135.724 26.1157 141.688C26.3021 144.246 26.3781 146.811 26.5023 149.37C26.5092 149.514 26.53 149.666 26.5438 149.811L26.5369 149.825Z" fill="#C6A35D"/>
<path id="Vector_5" d="M68.924 7.28123C68.2199 7.77078 67.5226 8.26034 66.8185 8.743C66.0246 9.29461 65.1962 9.79795 64.4368 10.3978C59.4387 14.3556 53.8952 17.2447 47.8271 19.2236C45.1762 20.0855 42.5874 20.0441 39.9572 19.3408C39.7293 19.2788 39.5015 19.2374 39.2737 19.1891C38.1346 18.9616 37.3477 18.3135 36.9473 17.2171C35.8082 14.0523 34.6208 10.9012 34.0823 7.55703C34.0064 7.09506 33.9028 6.64687 33.7993 6.19179C33.7855 6.14353 33.7026 6.11595 33.5853 6.02631C33.0054 9.25324 31.0931 11.7148 29.0842 14.135C28.1039 15.3141 27.1305 16.5069 26.2607 17.7619C24.5418 20.2441 23.741 23.0435 23.6719 26.0429C23.5891 29.6767 24.9145 32.4761 28.4836 33.9723C28.2972 33.9379 28.097 33.931 27.9244 33.8689C24.8455 32.7933 22.9954 30.2007 22.8918 26.76C22.7883 23.147 23.7479 19.8373 25.9017 16.9137C26.7301 15.7898 27.669 14.7418 28.5181 13.6317C29.4087 12.4733 30.3268 11.3149 31.1207 10.0876C32.9225 7.30881 33.2539 4.25426 32.6464 1.05491C32.5981 0.806683 32.5705 0.537772 32.605 0.289547C32.6188 0.172329 32.8052 0.013741 32.9225 -4.92913e-05C33.0537 -0.0138396 33.2401 0.0964828 33.3229 0.206805C33.4127 0.330918 33.4127 0.517087 33.4472 0.68257C34.1376 3.93708 34.7382 7.21917 35.5528 10.4461C36.1257 12.7008 36.9887 14.8797 37.755 17.0792C38.1001 18.0652 38.8112 18.672 39.8605 18.8651C41.0065 19.0788 42.1456 19.4167 43.2984 19.5063C44.2442 19.5822 45.2521 19.5063 46.1634 19.2512C50.1674 18.1618 54.0333 16.6862 57.561 14.4798C59.7908 13.0869 61.9101 11.508 64.0778 10.0186C65.4792 9.05328 66.8737 8.08796 68.282 7.14332C68.4201 7.04679 68.641 7.07437 68.8205 7.0399L68.9033 7.28123H68.924Z" fill="#C6A35D"/>
<path id="Vector_6" d="M48.7591 8.6534C48.2413 8.76372 47.7995 8.55686 47.3922 8.26037C46.8537 7.86045 46.26 7.81219 45.5973 7.83977C44.0371 7.89493 42.47 7.87424 40.9029 7.86045C40.1436 7.85356 39.4532 7.63291 39.0459 6.9365C38.9769 6.95029 38.9424 6.9434 38.9147 6.95719C38.6731 7.06751 38.5005 7.50191 38.1692 7.16404C37.893 6.88824 38.107 6.63312 38.2796 6.3711C38.7284 5.6678 38.68 5.43336 38.0311 4.87486C37.8792 4.74385 37.7135 4.62663 37.5962 4.46804C37.2648 4.04054 37.465 3.41308 37.9828 3.26829C38.1968 3.20623 38.466 3.18554 38.6731 3.2545C39.9917 3.72337 41.3793 3.57857 42.7324 3.75784C44.2511 3.9578 45.404 4.69558 46.2945 5.91602C46.688 6.45384 47.0953 6.98477 47.551 7.46054C47.8064 7.72945 48.1792 7.90182 48.5036 8.10868C48.6693 8.21211 48.8488 8.27416 49.0214 8.3569L48.7729 8.66029L48.7591 8.6534ZM45.8941 6.88134C45.3971 5.50231 44.4927 4.63353 43.112 4.36461C41.6761 4.08191 40.1712 4.34393 38.7629 3.813C38.7353 3.79921 38.6869 3.79232 38.6662 3.813C38.5351 3.88885 38.3072 3.9578 38.3003 4.05433C38.2796 4.21982 38.3556 4.5232 38.4591 4.55078C39.2047 4.77832 39.895 5.28167 40.7096 5.17135C42.2008 4.96449 43.4365 5.60574 44.6791 6.26078C45.0795 6.47453 45.4937 6.67449 45.8941 6.88824V6.88134ZM45.5144 7.3709C43.6712 6.06772 41.8763 5.49542 39.8329 5.86086C39.7846 6.81239 40.0331 7.30195 40.8477 7.35021C42.325 7.43295 43.8093 7.3709 45.5144 7.3709Z" fill="#C6A35D"/>
<path id="Vector_7" d="M46.3083 10.8391C46.1219 10.8943 45.9494 10.9977 45.763 11.0046C44.403 11.0529 43.0292 11.2183 41.6899 11.0735C40.3438 10.9287 39.3773 9.97032 38.5558 8.92226C38.5143 8.8671 38.5558 8.74299 38.5558 8.53613C38.9769 8.89468 39.322 9.18428 39.6672 9.47387C40.4404 10.1151 41.3102 10.4806 42.332 10.4254C43.4227 10.3633 44.5203 10.3082 45.6111 10.2254C46.046 10.191 46.336 10.2668 46.3152 10.8391H46.3083Z" fill="#C6A35D"/>
<path id="Vector_8" d="M33.247 33.9104C32.177 34.7723 30.9827 34.6482 29.747 34.2138C29.9334 34.2138 30.1198 34.2 30.3062 34.2138C31.0586 34.2758 31.7559 34.1862 32.4117 33.7518C32.6188 33.6139 32.9295 33.6277 33.1918 33.5725L33.247 33.9035V33.9104Z" fill="#C6A35D"/>
</g>
<g id="Group_2">
<path id="Vector_9" d="M107.59 232.132C120.538 232.132 131.034 221.648 131.034 208.716C131.034 195.784 120.538 185.3 107.59 185.3C94.6425 185.3 84.1462 195.784 84.1462 208.716C84.1462 221.648 94.6425 232.132 107.59 232.132Z" fill="white"/>
<path id="Vector_10" d="M140.796 236.655C155.898 236.655 168.141 224.427 168.141 209.344C168.141 194.26 155.898 182.032 140.796 182.032C125.694 182.032 113.451 194.26 113.451 209.344C113.451 224.427 125.694 236.655 140.796 236.655Z" stroke="#C6A35D" stroke-linecap="round" stroke-linejoin="round"/>
<path id="Vector_11" d="M106.81 236.655C121.912 236.655 134.155 224.427 134.155 209.344C134.155 194.26 121.912 182.032 106.81 182.032C91.7083 182.032 79.4657 194.26 79.4657 209.344C79.4657 224.427 91.7083 236.655 106.81 236.655Z" stroke="#C6A35D" stroke-linecap="round" stroke-linejoin="round"/>
<path id="Vector_12" d="M140.796 232.132C153.744 232.132 164.24 221.648 164.24 208.716C164.24 195.784 153.744 185.3 140.796 185.3C127.848 185.3 117.352 195.784 117.352 208.716C117.352 221.648 127.848 232.132 140.796 232.132Z" fill="#E21F26"/>
<path id="Vector_13" d="M179.31 232.132C192.258 232.132 202.754 221.648 202.754 208.716C202.754 195.784 192.258 185.3 179.31 185.3C166.362 185.3 155.866 195.784 155.866 208.716C155.866 221.648 166.362 232.132 179.31 232.132Z" fill="#231F20"/>
<path id="Vector_14" d="M179.31 236.655C194.412 236.655 206.655 224.427 206.655 209.344C206.655 194.26 194.412 182.032 179.31 182.032C164.208 182.032 151.966 194.26 151.966 209.344C151.966 224.427 164.208 236.655 179.31 236.655Z" stroke="#C6A35D" stroke-linecap="round" stroke-linejoin="round"/>
</g>
</g>
<defs>
<clipPath id="clip0_289_1047">
<rect width="207" height="237" fill="white"/>
</clipPath>
</defs>
</svg>
