<svg width="115" height="115" viewBox="0 0 115 115" fill="none" xmlns="http://www.w3.org/2000/svg">
<g id="_&#208;&#160;&#194;&#187;&#208;&#160;&#209;&#149;&#208;&#160;&#226;&#132;&#150;_1" clip-path="url(#clip0_289_1012)">
<path id="Vector" d="M77.1198 92.6316C75.6303 88.1522 74.161 83.7249 72.6859 79.2975C72.1971 77.8343 71.7344 76.3595 71.1675 74.9282C71.0373 74.595 70.5341 74.2067 70.1928 74.198C67.8818 74.1343 65.5709 74.1633 63.0286 74.1633C63.0286 74.7428 63.0286 75.2498 63.0286 75.7598C63.0286 87.9349 63.0228 100.11 63.0228 112.285C63.0228 114.415 62.5051 114.968 60.4198 114.98C58.4906 114.991 56.5643 114.991 54.6352 114.98C52.4978 114.968 51.9801 114.444 51.9801 112.34C51.9801 100.165 51.9772 87.9899 51.9743 75.8148C51.9743 75.3367 51.9743 74.8587 51.9743 74.172C49.4522 74.172 47.0169 74.1401 44.5816 74.2183C44.3271 74.227 43.9742 74.8615 43.8643 75.2614C41.8369 82.5514 39.8383 89.8501 37.8397 97.1517C36.4138 102.358 34.9937 107.568 33.5852 112.781C33.0964 114.586 32.6394 114.971 30.7536 114.98C28.8245 114.988 26.8982 114.991 24.9691 114.98C22.5945 114.968 21.9351 113.977 22.5743 111.653C25.8801 99.6145 29.1542 87.5698 32.4369 75.5222C32.5382 75.1542 32.5931 74.7746 32.7175 74.1633C32.0725 74.1633 31.5259 74.1633 30.9821 74.1633C21.7268 74.1633 12.4715 74.172 3.21622 74.1662C0.410704 74.1662 0.00578456 73.7808 0.00578456 71.0195C0 52.3715 0.00578456 33.7235 0.00578456 15.0755C0.00578456 10.9669 0.00289228 6.85828 0 2.75258C0 0.617158 0.618948 0 2.76502 0C39.254 0 75.7431 0.00289746 112.232 0.00289746C114.364 0.00289746 115 0.62585 115 2.75258C115 25.2658 115 47.7819 115 70.2952C115 70.779 115 71.2629 114.986 71.7439C114.931 73.5519 114.335 74.1546 112.504 74.1575C103.538 74.1691 94.5718 74.1633 85.6057 74.1662C84.5963 74.1662 83.5869 74.1662 82.3317 74.1662C84.4112 80.4102 86.4445 86.5093 88.5125 92.7186C92.7815 92.7186 97.0158 92.7186 101.25 92.7186C105.01 92.7186 108.77 92.7302 112.53 92.7012C113.519 92.6925 114.367 92.8605 114.809 93.8515C115.269 94.883 114.696 95.5986 114.02 96.2737C112.275 98.0093 110.534 99.7449 108.796 101.489C107.121 103.17 107.107 104.41 108.753 106.067C110.52 107.849 112.354 109.567 114.031 111.433C114.526 111.984 114.87 112.978 114.769 113.693C114.621 114.722 113.612 114.983 112.62 114.983C101.001 114.977 89.386 115.043 77.7677 114.945C71.905 114.896 67.26 110.413 66.7712 104.685C66.2853 98.9887 70.1696 94.0456 76.0525 92.8808C76.3794 92.8171 76.7033 92.7302 77.1227 92.6345L77.1198 92.6316ZM111.237 3.84492H3.81203V70.2865H111.237V3.84492ZM96.3159 102.011V105.786H81.6722V111.132H108.478C106.341 108.886 103.833 107.162 103.784 103.862C103.735 100.536 106.338 98.8061 108.417 96.5403H81.6462V102.011H96.3159ZM36.6828 74.2183C33.3278 86.5151 29.9785 98.8032 26.6177 111.12C30.0421 111.523 30.0653 111.529 30.8751 108.582C33.2844 99.7999 35.6792 91.0149 38.0682 82.2298C38.7855 79.5902 39.471 76.939 40.1882 74.2183H36.6828ZM59.2079 111.193V74.2357H55.7979V111.193H59.2079ZM77.7503 111.193V96.5548C74.0193 96.4186 70.7654 99.4986 70.5254 103.288C70.2593 107.501 73.2904 110.88 77.7503 111.193ZM84.336 92.7186C84.3707 92.4607 84.417 92.3564 84.391 92.2753C82.4763 86.4717 80.5616 80.6652 78.6151 74.8731C78.5197 74.5892 78.135 74.2328 77.8573 74.2096C76.9347 74.1256 76.0005 74.1778 74.913 74.1778C76.9376 80.2363 78.8754 86.0805 80.874 91.9044C80.9954 92.2579 81.5594 92.6201 81.9644 92.6838C82.7453 92.8084 83.558 92.7186 84.336 92.7186Z" fill="#C6A35D"/>
<path id="Vector_2" d="M57.5015 7.48117C73.3569 7.48117 89.2153 7.48117 105.071 7.48117C106.893 7.48117 107.544 8.09833 107.544 9.86867C107.547 27.8387 107.544 45.8087 107.541 63.7787C107.541 66.3343 107.136 66.7631 104.631 66.7631C87.8126 66.7718 70.9911 66.7631 54.1724 66.7631C39.9077 66.7631 25.643 66.7689 11.3754 66.7689C7.53152 66.7689 7.45053 66.6878 7.45053 62.9037C7.45053 45.2727 7.45053 27.6388 7.45053 10.0078C7.45053 8.04907 8.04923 7.47827 10.0709 7.47827C25.8801 7.47827 41.6865 7.47827 57.4957 7.47827L57.5015 7.48117ZM103.691 63.0167V11.329H11.3088V63.0051H77.6375C77.7243 62.8342 77.8024 62.7501 77.8024 62.6661C77.8255 61.171 77.8313 59.673 77.8573 58.1779C77.892 56.2019 78.4792 55.6195 80.4864 55.6166C84.9203 55.605 89.3542 55.6108 93.788 55.6166C95.8531 55.6195 96.4171 56.1903 96.4373 58.2996C96.4547 59.8672 96.4402 61.4318 96.4402 63.0167H103.691ZM81.6347 63.0051H92.6658V59.4615H81.6347V63.0051Z" fill="#C6A35D"/>
<path id="Vector_3" d="M100.304 24.1359C99.9544 24.7154 99.7461 25.2688 99.3643 25.6513C92.7323 32.3212 86.1119 39.0027 79.3845 45.58C78.4763 46.4666 77.0359 46.8404 75.8038 47.3561C73.7648 48.2138 71.717 49.0743 69.6172 49.7639C68.9578 49.9812 67.9802 49.8798 67.3931 49.5205C66.5688 49.0164 66.6642 48.0776 67.0344 47.1794C68.1913 44.3717 69.2731 41.5322 70.4473 38.7333C70.7163 38.09 71.1762 37.4845 71.6736 36.9861C78.0714 30.5567 84.4864 24.1504 90.9044 17.7383C92.2551 16.3881 93.0997 16.3707 94.4677 17.7122C96.1192 19.3319 97.762 20.9661 99.3672 22.6321C99.7432 23.0204 99.9573 23.5651 100.304 24.133V24.1359ZM89.788 29.6758C88.9666 28.766 88.1018 27.8128 87.2717 26.8943C83.7865 30.406 80.4025 33.8134 77.033 37.2063C77.9036 38.0698 78.8147 38.9767 79.7286 39.8807C83.0663 36.4936 86.404 33.1064 89.7909 29.6729L89.788 29.6758ZM95.6073 24.1765C94.6008 23.1624 93.6984 22.2555 92.7989 21.3515C91.7808 22.325 90.8495 23.2145 89.8806 24.1417C90.8234 25.0979 91.7287 26.0164 92.6253 26.9291C93.6376 25.9961 94.5805 25.1239 95.6073 24.1794V24.1765ZM72.1682 44.4152L72.4459 44.676C73.9441 44.0762 75.4423 43.4764 76.9 42.894C75.9542 41.8162 75.0923 40.8339 74.0656 39.6663C73.3627 41.4279 72.7669 42.923 72.1711 44.4181L72.1682 44.4152Z" fill="#C6A35D"/>
<path id="Vector_4" d="M48.7263 54.788C47.0719 56.6801 45.4811 57.6652 43.4652 56.6714C42.6236 56.257 41.8282 55.4631 41.3625 54.6402C40.5353 53.1828 39.9742 51.5689 39.2974 50.0246C39.0921 49.5552 38.8665 49.0945 38.5368 48.3846C36.9634 50.5693 35.5288 52.5454 34.1145 54.5388C33.3162 55.663 32.3097 56.4135 30.8954 56.4714C28.6972 56.5584 27.4188 55.3356 26.6032 53.206C23.6357 55.1589 20.7319 57.0712 17.747 59.0386L15.6993 55.9354C18.8143 53.8782 21.7702 51.8007 24.8505 49.9406C26.609 48.8772 28.917 49.7349 29.9727 51.5429C30.1839 51.905 30.3545 52.2904 30.664 52.9076C32.2229 50.7374 33.6488 48.7063 35.1239 46.7128C36.7522 44.5136 39.4073 44.1949 41.2497 45.9884C41.6836 46.4115 42.0017 46.9881 42.2591 47.5473C43.121 49.4219 43.9309 51.3227 44.8159 53.3364C45.1514 53.0264 45.3886 52.8206 45.6113 52.6004C47.4016 50.8446 49.7039 50.8214 51.5115 52.6062C52.2982 53.3827 52.9895 54.2607 53.7762 55.1531C55.9946 53.5102 57.9874 52.0296 60.0872 50.4737C60.8478 51.4762 61.5362 52.3831 62.3489 53.4552C60.064 55.1096 57.9151 56.7988 55.6273 58.2766C54.2592 59.1603 52.3792 58.6764 51.0112 57.3465C50.2245 56.5815 49.5419 55.7123 48.7234 54.7938L48.7263 54.788Z" fill="#C6A35D"/>
<path id="Vector_5" d="M16.7781 25.9612V22.3394H59.2339V25.9612H16.7781Z" fill="#C6A35D"/>
<path id="Vector_6" d="M16.7926 37.1309H59.2484V40.7237H16.7926V37.1309Z" fill="#C6A35D"/>
<path id="Vector_7" d="M59.2542 29.8408V33.2917H16.8331V29.8408H59.2542Z" fill="#C6A35D"/>
</g>
<defs>
<clipPath id="clip0_289_1012">
<rect width="115" height="115" fill="white"/>
</clipPath>
</defs>
</svg>
