<svg width="148" height="120" viewBox="0 0 148 120" fill="none" xmlns="http://www.w3.org/2000/svg">
<g id="_&#208;&#160;&#194;&#187;&#208;&#160;&#209;&#149;&#208;&#160;&#226;&#132;&#150;_1" clip-path="url(#clip0_289_1020)">
<g id="Group">
<path id="Vector" d="M127.264 22.2898C127.246 19.6446 125.67 18.1272 123.011 18.0321C121.829 17.9868 120.642 18.0231 119.419 18.0231C118.753 11.8403 115.261 8.68776 108.947 7.82715C109.59 6.92125 110.089 6.37318 110.401 5.73C110.763 4.99169 111.352 4.02237 111.121 3.43807C110.886 2.83565 109.821 2.37364 109.047 2.21963C108.032 2.01581 106.909 2.00222 105.899 2.21963C105.061 2.40081 103.901 2.87188 103.657 3.51054C103.43 4.09485 104.205 5.09587 104.608 5.87494C104.925 6.49095 105.351 7.05261 105.872 7.86339H93.3839C93.3839 6.01082 93.3159 4.35303 93.402 2.70429C93.5016 0.865314 92.632 0.0228271 90.8881 0.0182976C83.3375 0.00470915 75.7915 0.000179654 68.2408 0.0182976C66.5197 0.0182976 65.5911 0.833607 65.6681 2.68164C65.7406 4.45268 65.6817 6.22371 65.6817 8.06269C50.4401 8.06269 35.5699 8.05816 20.7042 8.06269C14.1093 8.06269 9.97844 12.1981 9.97391 18.7659C9.96485 30.2391 9.96938 41.7123 9.97391 53.1901C9.97391 59.862 13.9462 63.848 20.6317 63.9069C22.3257 63.9205 24.0243 63.9069 25.6775 63.9069V73.6951C21.9906 74.0847 22.0177 74.0167 19.0419 72.3997C18.4168 72.06 17.0308 72.1053 16.6684 72.5401C16.1974 73.1018 16.0343 74.4244 16.3831 75.0766C17.7102 77.5724 20.0112 78.1431 22.7062 77.8623C24.1058 77.7173 25.6549 77.3957 26.5336 79.2483C26.7193 79.6424 28.6262 79.8145 28.7847 79.5382C30.1526 77.1602 32.3811 77.6811 34.3288 77.8894C36.6886 78.1431 38.0837 76.8839 39.1753 75.2669C39.6011 74.6373 39.5014 73.1878 39.0349 72.5718C38.7043 72.1324 36.9378 72.0781 36.5346 72.5129C34.5689 74.6554 32.2815 73.6906 30.0077 73.7404V70.1712C31.7153 69.9945 33.9166 70.1259 33.6992 67.8747C33.6086 66.9416 31.661 66.1852 30.5603 65.3473C30.361 65.5149 30.1617 65.6824 29.9579 65.85C29.9941 65.2431 30.0303 64.6407 30.0756 63.8842C32.2271 63.8842 34.1839 63.9386 36.1361 63.8752C41.5352 63.694 45.6162 59.5676 45.7476 54.1639C45.8019 51.8267 45.7476 49.485 45.7612 47.1432C45.7793 44.5795 46.3998 43.9273 48.9544 43.9227C56.7315 43.9046 64.504 43.9046 72.2811 43.9227C74.9218 43.9273 75.642 44.6474 75.6465 47.2655C75.6556 58.2133 75.6465 69.1566 75.6465 80.1044V81.889H54.7023C38.8492 81.889 22.9961 81.889 7.143 81.889C2.25572 81.889 0.00910709 84.1673 0.00457764 89.1045C0.00457764 90.9163 0.00457764 92.7281 0.00457764 94.5399C0.00457764 106.353 7.54612 113.949 19.3182 113.949C42.4637 113.953 65.6092 113.913 88.7593 113.953C90.562 113.953 91.024 110.035 88.1025 109.963C75.411 109.963 62.7194 109.963 50.0279 109.963C39.5377 109.963 29.0429 109.995 18.5527 109.949C11.4958 109.918 5.78869 105.728 4.46609 98.9335C3.74138 95.2193 4.1445 91.2786 4.19432 87.4422C4.19885 86.9575 5.09116 86.337 5.6981 86.0471C6.19634 85.8115 6.88482 85.961 7.48724 85.961C34.2382 85.961 60.9847 85.961 87.7356 85.961C90.6435 85.8206 90.0592 81.9297 87.8942 81.7622H79.6687C79.6687 80.9468 79.6687 80.1497 79.6687 79.357C79.6687 68.7172 79.6732 58.0774 79.6687 47.4376C79.6687 42.2196 77.4764 40.0455 72.2268 40.0409C64.3772 40.0319 56.5322 40.0228 48.6827 40.0409C43.9313 40.0545 41.6937 42.3601 41.6801 47.1704C41.6756 49.2811 41.6846 51.3964 41.6801 53.5071C41.662 57.3391 39.4697 59.8756 35.674 59.9889C30.4742 60.1383 25.2608 60.1202 20.0565 59.9979C16.0615 59.9073 13.9372 56.5963 13.978 53.5388C14.1455 41.8437 14.0414 30.1485 14.0504 18.4534C14.0504 14.4402 16.3197 12.1664 20.3237 12.1302C22.054 12.1166 23.7797 12.1302 25.8315 12.1302V18.7025C25.8315 30.4746 25.8315 42.2468 25.8315 54.0145C25.8315 54.5444 25.6368 55.1921 25.8723 55.5726C26.3932 56.4106 27.0228 57.5792 27.8064 57.7649C29.3147 58.1227 29.8311 56.8635 29.899 55.5137C29.9262 54.9883 29.9035 54.4583 29.9081 53.9284C29.9081 40.8744 29.9081 27.8204 29.9081 14.7663V12.1211H32.3268C57.6782 12.1211 83.034 12.1936 108.385 12.0532C112.865 12.026 115.479 15.1332 115.469 18.9969C115.442 30.4475 115.442 41.898 115.442 53.3486C115.483 55.3371 119.206 55.5771 119.283 53.2037C119.283 51.7406 119.288 50.2731 119.288 48.8101V46.0878C120.787 46.0878 121.915 46.1422 123.043 46.0788C125.652 45.9338 127.26 44.344 127.273 41.7531C127.314 35.2623 127.319 28.767 127.273 22.2763L127.264 22.2898ZM69.8262 7.97663V4.14467H73.9842C73.0466 7.75468 72.7069 8.08986 69.8262 7.9721V7.97663ZM77.1729 7.90868C78.3732 3.87743 78.4955 3.77778 81.9832 4.14014C80.8146 8.20763 80.715 8.28463 77.1729 7.90868ZM89.4478 7.90868H85.2308C85.8559 4.60215 86.6033 3.88649 89.4478 4.14014V7.90868ZM123.115 41.8845H119.437C119.301 40.1361 118.613 38.3967 120.764 37.201C121.118 37.0062 121.113 35.2623 120.674 34.7097C118.812 32.3499 118.817 31.5617 120.588 29.4057C121.054 28.8395 121.032 26.9688 120.665 26.774C118.627 25.6915 119.383 24.0156 119.329 22.2853H123.111V41.889L123.115 41.8845Z" fill="#C6A35D"/>
<path id="Vector_2" d="M97.3924 32.0644C94.3803 32.0644 91.3637 32.0236 88.3516 32.0779C86.3405 32.1142 85.5025 31.2762 85.5795 29.2244C85.6928 26.2892 85.6475 23.3496 85.5931 20.41C85.5614 18.7703 86.3586 18.0365 87.8941 18.032C94.2988 18.0139 100.703 18.0184 107.104 18.032C108.567 18.032 109.341 18.8699 109.359 20.2922C109.4 23.4538 109.409 26.6199 109.359 29.786C109.332 31.4982 108.268 32.0961 106.655 32.0779C103.566 32.0417 100.477 32.0689 97.3878 32.0689L97.3924 32.0644ZM89.7376 22.2082V27.8338H105.328V22.2082H89.7376Z" fill="#C6A35D"/>
<path id="Vector_3" d="M61.7093 32.0645C59.748 32.0645 57.7913 32.1098 55.8301 32.0554C52.4511 31.9603 49.9418 29.6367 49.824 26.5702C49.6791 22.8787 51.817 20.2516 55.4813 20.084C59.5397 19.8983 63.6207 19.9164 67.6836 20.0659C71.2982 20.2017 73.5991 22.779 73.5221 26.2079C73.4497 29.5552 70.9267 31.9739 67.3575 32.06C65.4733 32.1053 63.589 32.069 61.7048 32.069L61.7093 32.0645ZM61.6459 23.9522V27.9879C63.4984 27.9879 65.2785 27.9427 67.0541 28.0015C68.4718 28.0514 69.6857 27.4218 69.5045 26.1037C69.3958 25.2929 68.0777 24.2239 67.1537 24.0473C65.437 23.7166 63.6071 23.9522 61.6504 23.9522H61.6459ZM56.1381 23.7438H55.2503C54.7702 24.541 53.905 25.3563 53.9368 26.1354C53.9639 26.7695 55.0601 27.8249 55.6942 27.8339C56.3011 27.843 57.3882 26.765 57.4199 26.1218C57.4561 25.3518 56.6001 24.5365 56.1335 23.7438H56.1381Z" fill="#C6A35D"/>
</g>
<path id="Vector_4" d="M97.8499 92.3429C97.8499 98.1679 97.8499 103.997 97.8499 109.822C97.8499 112.336 99.0049 114.152 101.152 114.873C101.867 115.113 102.665 115.181 103.426 115.185C107.534 115.212 111.642 115.194 115.755 115.208C116.244 115.208 116.769 115.249 117.213 115.425C118.232 115.833 118.717 116.915 118.5 118.084C118.318 119.053 117.345 119.923 116.335 119.928C111.529 119.941 106.714 120.104 101.917 119.873C97.6007 119.665 94.2263 116.481 93.3883 112.44C93.2298 111.666 93.1528 110.864 93.1528 110.076C93.1392 98.1996 93.1438 86.3232 93.1438 74.4469C93.1438 69.7362 96.337 65.8091 100.962 65.021C102.493 64.7628 104.082 64.8443 105.645 64.8081C106.963 64.7764 108.286 64.7855 109.604 64.8081C110.084 64.8172 110.27 64.6541 110.261 64.1604C110.233 63.1911 110.238 62.2172 110.261 61.2479C110.297 59.803 111.284 58.8382 112.729 58.8337C115.841 58.8246 118.957 58.8246 122.069 58.8337C123.509 58.8337 124.506 59.8121 124.533 61.2524C124.551 62.1991 124.569 63.1458 124.533 64.0924C124.51 64.6632 124.732 64.8172 125.271 64.8081C127.414 64.7855 129.556 64.8308 131.694 64.79C136.223 64.7085 139.947 67.4216 141.26 71.5616C141.505 72.3316 141.636 73.1696 141.641 73.9803C141.672 80.1042 141.663 86.2326 141.659 92.3565C141.659 93.815 140.717 94.816 139.349 94.8432C137.967 94.8749 136.962 93.8648 136.957 92.3701C136.944 86.518 136.957 80.6659 136.948 74.8138C136.948 72.395 135.784 70.5877 133.71 69.8766C133.062 69.6547 132.346 69.5595 131.662 69.546C129.597 69.5052 127.527 69.555 125.461 69.5188C124.737 69.5052 124.519 69.7543 124.533 70.4655C124.587 73.7131 123.102 76.0231 120.139 77.3503C116.683 78.8948 112.462 77.2144 110.868 73.6995C110.369 72.6079 110.215 71.4665 110.265 70.2843C110.283 69.8087 110.156 69.5188 109.613 69.5324C107.027 69.5913 104.436 69.5686 101.858 69.7181C100.124 69.8177 98.4613 71.4076 98.1035 73.0971C97.9631 73.772 97.8725 74.4741 97.8725 75.1671C97.8544 80.8924 97.8635 86.6222 97.8635 92.3475L97.8499 92.3429ZM119.813 67.5032C119.813 66.4115 119.795 65.3154 119.822 64.2238C119.831 63.7391 119.65 63.558 119.175 63.5625C118.006 63.5806 116.837 63.5851 115.673 63.5625C115.103 63.5489 114.962 63.8026 114.967 64.328C114.989 66.4161 114.967 68.4996 114.98 70.5877C114.989 72.0372 116.085 73.1832 117.413 73.1741C118.726 73.1605 119.781 72.0553 119.809 70.633C119.827 69.5913 119.809 68.5449 119.813 67.5032Z" fill="#C6A35D"/>
<path id="Vector_5" d="M130.534 119.932C129.239 119.86 127.79 119.334 126.607 118.197C124.094 115.783 121.589 113.36 119.102 110.923C117.997 109.84 117.965 108.395 118.962 107.403C119.926 106.439 121.349 106.457 122.431 107.503C124.759 109.745 127.065 112.01 129.379 114.27C130.643 115.502 131.363 115.452 132.373 114.044C136.101 108.853 139.82 103.662 143.552 98.4804C144.594 97.0354 146.356 96.886 147.443 98.1089C148.181 98.9424 148.199 100.143 147.452 101.203C146.311 102.829 145.146 104.441 143.987 106.058C141.287 109.813 138.588 113.564 135.893 117.319C134.72 118.954 132.799 119.964 130.539 119.932H130.534Z" fill="#C6A35D"/>
<path id="Vector_6" d="M121.525 85.3855C124.261 85.3855 126.997 85.4127 129.733 85.3764C131.101 85.3583 131.92 86.4454 132.079 87.3604C132.274 88.4656 131.563 89.607 130.439 89.9694C130.163 90.0599 129.855 90.0735 129.556 90.0735C124.184 90.0781 118.808 90.0781 113.436 90.0735C111.973 90.0735 110.954 89.0725 110.967 87.6684C110.981 86.3548 111.982 85.39 113.386 85.3855C116.099 85.3719 118.808 85.3855 121.521 85.3855H121.525Z" fill="#C6A35D"/>
<path id="Vector_7" d="M121.562 94.9202C124.275 94.9202 126.983 94.9156 129.696 94.9202C130.928 94.9202 131.848 95.6947 132.079 96.8633C132.278 97.8915 131.662 99.0148 130.611 99.4406C130.322 99.5584 129.982 99.5946 129.669 99.5946C124.27 99.6037 118.876 99.6037 113.476 99.5946C112.081 99.5946 111.112 98.6253 111.103 97.2755C111.094 95.885 112.063 94.9202 113.508 94.9156C116.194 94.9066 118.88 94.9156 121.566 94.9156L121.562 94.9202Z" fill="#C6A35D"/>
<path id="Vector_8" d="M105.065 94.9246C106.429 94.9156 107.416 95.8985 107.416 97.2573C107.416 98.6252 106.438 99.6081 105.079 99.6081C103.747 99.6081 102.692 98.5754 102.683 97.2754C102.678 95.98 103.734 94.9382 105.065 94.9291V94.9246Z" fill="#C6A35D"/>
<path id="Vector_9" d="M105.074 85.3902C106.447 85.3856 107.43 86.3595 107.416 87.7228C107.407 89.0726 106.392 90.0827 105.061 90.0782C103.761 90.0691 102.674 88.9911 102.678 87.7138C102.687 86.4048 103.725 85.3992 105.07 85.3902H105.074Z" fill="#C6A35D"/>
</g>
<defs>
<clipPath id="clip0_289_1020">
<rect width="148" height="120" fill="white"/>
</clipPath>
</defs>
</svg>
