<svg width="138" height="110" viewBox="0 0 138 110" fill="none" xmlns="http://www.w3.org/2000/svg">
<g id="_&#208;&#160;&#194;&#187;&#208;&#160;&#209;&#149;&#208;&#160;&#226;&#132;&#150;_1" clip-path="url(#clip0_289_1007)">
<path id="Vector" d="M126.02 77.1858C126.02 83.3251 126.02 89.1289 126.02 94.9327C126.02 96.6693 126.088 98.415 125.993 100.147C125.821 103.362 123.348 105.774 120.15 105.928C119.321 105.969 118.488 105.942 117.659 105.933C113.061 105.896 110.715 103.561 110.715 98.9636C110.715 92.6928 110.738 86.422 110.751 80.1512C110.751 79.1854 110.751 78.2196 110.751 77.0679H104.533C104.533 81.1124 104.537 85.157 104.533 89.197C104.528 92.5976 104.533 95.9983 104.478 99.3989C104.397 104.464 101.761 106.948 96.629 106.853C92.1993 106.772 89.7444 104.015 89.758 99.145C89.7852 90.6071 89.7852 82.0692 89.8576 73.5312C89.8667 72.375 89.7353 71.5407 88.4128 71.5317C85.1879 71.5044 81.963 71.5226 78.4935 71.5226C78.4935 72.842 78.4935 73.7308 78.4935 74.6149C78.4935 84.1368 78.498 93.6632 78.489 103.185C78.4845 107.606 76.0975 109.95 71.6044 109.977C69.4167 109.991 67.2245 110.018 65.0368 109.968C60.811 109.877 58.4602 107.497 58.4557 103.339C58.4466 93.5906 58.3832 83.842 58.4874 74.0935C58.5101 72.044 57.8805 71.441 55.9193 71.5906C53.8946 71.7493 51.8383 71.713 49.8047 71.6042C48.2103 71.5226 47.7212 72.1211 47.7438 73.6899C47.848 81.9966 47.8842 90.3033 47.8797 98.61C47.8797 99.9521 47.8027 101.385 47.3362 102.614C46.154 105.72 42.603 107.266 38.8165 106.563C35.3425 105.919 33.2182 103.516 33.1774 99.9657C33.1004 93.2415 33.105 86.5127 33.0778 79.7839C33.0778 79.1945 33.0778 78.605 33.0778 77.866H27.2259C27.2259 78.7909 27.2259 79.666 27.2259 80.5411C27.2259 87.0432 27.2395 93.5407 27.2259 100.043C27.2168 104.173 24.7574 106.622 20.604 106.699C19.9246 106.713 19.2452 106.708 18.5658 106.699C14.4667 106.608 11.9665 104.101 11.9529 99.9793C11.9258 92.7291 11.9439 85.4789 11.9439 77.9068C10.2499 77.9068 8.7054 77.9113 7.15636 77.9068C2.9169 77.8841 0.552582 75.5807 0.493701 71.382C0.321586 58.4595 0.158529 45.5416 2.26928e-06 32.619C-0.0498205 28.6289 1.03269 26.6021 4.1217 25.6817C7.60024 24.6479 11.9439 24.9653 13.9911 27.6223C14.4667 28.239 15.5447 28.6652 16.3645 28.697C20.6402 28.8466 24.9839 28.171 29.0557 30.166C34.7899 32.9818 38.3454 37.5568 38.8119 43.8775C39.0339 46.929 40.1073 48.9694 42.2633 50.7695C42.7796 51.2003 43.2416 51.6945 44.0162 52.4336C45.298 49.0828 46.4982 45.9587 47.6894 42.8301C48.011 41.9822 48.2828 41.1162 48.618 40.2773C49.9088 37.0444 51.3446 36.0197 54.7733 36.0106C63.909 35.988 73.0492 35.988 82.1849 36.0016C85.7495 36.0061 87.2578 37.1805 88.5305 40.6401C89.9573 44.5259 91.452 48.3845 93.078 52.6784C95.5782 49.6632 98.9933 48.185 99.1428 43.5329C99.4236 34.8091 107.065 28.0576 115.811 27.9443C117.02 27.9307 118.229 27.8989 119.434 27.9443C121.608 28.0304 123.375 27.8264 125.218 26.0218C127.755 23.5325 131.365 24.2081 134.431 25.2283C137.398 26.2167 138.072 28.8965 137.995 31.88C137.846 37.6203 137.841 43.3651 137.819 49.11C137.81 50.8375 137.638 52.3791 135.436 52.4653C133.729 52.5333 132.918 51.3952 132.963 48.9286C133.059 43.3379 133.14 37.7427 133.353 32.1566C133.434 29.9801 132.619 29.2592 130.468 29.2093C128.294 29.1594 127.528 29.8577 127.524 32.0432C127.506 42.1726 127.374 52.2975 127.27 62.427C127.229 66.1949 126.672 66.7027 122.881 66.6528C117.369 66.5758 111.857 66.5531 106.344 66.4261C104.492 66.3853 103.292 66.6801 103.355 68.9653C103.437 71.8218 103.491 72.0894 106.132 72.1347C114.212 72.2753 122.288 72.3297 130.368 72.4974C132.125 72.5337 132.905 71.8763 132.841 70.1487C132.818 69.5457 132.841 68.9381 132.841 68.335C132.859 66.8251 133.616 65.8231 135.101 65.7369C136.655 65.6462 137.461 66.739 137.574 68.1537C138.005 73.4904 136.301 77.6392 129.96 77.2085C128.765 77.1269 127.56 77.1949 126.015 77.1949L126.02 77.1858ZM68.5199 60.9261V61.0622C60.5166 61.0622 52.5132 61.035 44.5098 61.103C43.758 61.1075 42.5486 61.5247 42.3448 62.0552C41.1536 65.1293 42.4264 66.875 45.7645 66.9113C50.0674 66.9566 54.3702 66.9158 58.6731 66.9204C62.8945 66.9204 63.1617 67.206 63.1617 71.441C63.1526 81.7926 63.1979 92.1442 63.1255 102.496C63.1119 104.455 63.7279 105.266 65.7298 105.126C67.4555 104.999 69.1993 105.107 70.9386 105.098C73.783 105.085 73.86 105.008 73.8645 102.156C73.8691 91.6545 73.8645 81.1487 73.8736 70.6475C73.8736 67.3738 74.3039 66.9385 77.4925 66.934C82.3253 66.9249 87.1581 66.8206 91.9864 66.9702C94.4187 67.0473 94.8308 65.9682 94.8535 63.8462C94.8807 61.7196 94.31 60.8672 92.0725 60.8944C84.2231 60.9896 76.3693 60.9307 68.5154 60.9307L68.5199 60.9261ZM89.1964 56.0382C87.3257 50.9826 85.6453 46.3169 83.8155 41.7101C83.6026 41.1751 82.5382 40.6763 81.8633 40.6718C72.9632 40.6038 64.063 40.6083 55.1629 40.6627C54.5288 40.6627 53.5232 41.0663 53.333 41.5424C51.4397 46.2761 49.6778 51.0688 47.8072 56.0382H89.2009H89.1964ZM19.7842 73.1685V72.8511C23.8606 72.8511 27.9415 72.7468 32.0134 72.8874C34.5136 72.9735 34.5544 71.5815 34.5815 69.7225C34.6132 67.7093 33.8025 67.0927 31.8775 67.1425C26.2928 67.2831 20.7082 67.2922 15.1235 67.3375C11.1875 67.3692 10.8523 67.0972 10.7934 63.1162C10.6394 53.0683 10.5488 43.0205 10.4265 32.9727C10.3903 30.1434 10.2907 30.0527 7.47342 30.0754C4.77393 30.098 4.60181 30.2613 4.65617 33.1495C4.74222 37.8334 4.90528 42.5127 4.97322 47.1965C5.08192 55.0543 5.17251 62.9121 5.20422 70.7654C5.21328 72.6289 5.92438 73.2637 7.79953 73.2048C11.7944 73.0778 15.7938 73.1685 19.7932 73.1685H19.7842ZM15.6761 62.2637H33.3948L33.7617 61.6199C30.6138 58.6091 27.3889 55.6665 24.3407 52.556C22.0353 50.2027 21.8405 46.6524 23.5888 44.0045C25.4187 41.2295 28.7568 40.1368 31.9455 41.2658C32.3939 41.4245 32.8423 41.5786 33.6621 41.8688C32.335 38.4954 30.3919 36.2147 27.552 34.7093C24.0282 32.8458 20.219 33.2674 16.4732 33.4896C16.0248 33.5168 15.2865 34.732 15.2865 35.394C15.2956 43.7687 15.4088 52.1479 15.5085 60.5226C15.5175 61.1075 15.6172 61.6924 15.6715 62.2683L15.6761 62.2637ZM122.22 61.6289C122.274 61.4612 122.405 61.2526 122.405 61.044C122.541 52.2068 122.65 43.3651 122.804 34.5279C122.827 33.2266 122.238 32.7551 121.051 32.7732C118.637 32.814 116.209 32.6916 113.813 32.9319C109.633 33.3581 105.375 37.2167 104.755 41.0164C105.371 40.8305 105.923 40.6537 106.48 40.4995C110.52 39.3705 114.126 41.4018 115.272 45.4237C116.037 48.117 115.168 50.3569 113.279 52.2159C110.299 55.145 107.237 57.9925 104.207 60.8717C104.361 61.1211 104.51 61.3705 104.664 61.6244H122.215L122.22 61.6289ZM98.3547 69.6228C97.562 70.0852 96.7875 70.7019 95.9088 71.0102C94.6995 71.4319 94.3598 72.1528 94.3643 73.3862C94.4051 81.9876 94.4051 90.589 94.3598 99.1904C94.3507 101.176 95.0936 102.106 97.1544 102.083C99.1156 102.061 99.8267 101.117 99.8086 99.272C99.7814 95.8033 99.9445 92.3256 99.8222 88.8614C99.5957 82.4591 100.71 75.957 98.3547 69.6273V69.6228ZM43.1737 71.7856C41.7424 71.2777 40.6373 70.8878 39.6906 70.5568C38.9976 72.6153 37.8562 74.497 37.8064 76.4014C37.6162 84.173 37.7294 91.9538 37.8019 99.7299C37.8155 101.471 39.0429 101.956 40.6101 101.929C42.2407 101.902 43.1873 101.231 43.1828 99.4987C43.1782 96.8552 43.1737 94.2118 43.1737 91.5638C43.1737 84.9983 43.1737 78.4373 43.1737 71.781V71.7856ZM115.562 77.1541C115.562 84.5131 115.616 91.7406 115.53 98.9636C115.507 101.058 116.608 101.29 118.238 101.267C119.855 101.244 121.201 101.267 121.155 98.95C121.042 93.0692 121.119 87.1838 121.119 81.2984C121.119 79.9653 121.119 78.6368 121.119 77.1586H115.557L115.562 77.1541ZM16.8175 77.866C16.8175 85.2522 16.899 92.4026 16.7722 99.5486C16.7314 101.829 17.9 101.92 19.5939 101.938C21.3106 101.956 22.4882 101.807 22.4384 99.5667C22.3206 94.1392 22.3976 88.7118 22.3976 83.2843C22.3976 81.5024 22.3976 79.7204 22.3976 77.866H16.8175ZM99.3783 59.5885C102.92 55.9929 106.344 52.5106 109.769 49.0374C110.797 47.9946 111.254 46.6706 110.072 45.7093C109.429 45.1879 107.672 45.0564 107.146 45.5416C103.351 49.0465 99.7407 52.7509 96.0492 56.4146C97.2088 57.5209 98.1735 58.4414 99.3783 59.5885ZM41.285 56.3511C40.053 55.1994 39.0429 54.3017 38.0872 53.3495C35.7863 51.0642 33.5217 48.7472 31.2162 46.4665C30.2424 45.5053 28.9742 45.0972 28.0593 46.2308C27.5384 46.8701 27.2621 48.516 27.6788 48.9785C30.8222 52.4744 34.1648 55.7934 37.4033 59.1215C38.8436 58.0923 39.8718 57.3622 41.285 56.3511Z" fill="#C6A35D"/>
<path id="Vector_2" d="M30.5957 10.9047C30.333 15.8833 29.1961 19.4699 27.2168 22.7345C23.7338 28.4793 16.7404 28.5337 13.1894 22.7934C10.0189 17.6607 9.55238 12.129 11.7491 6.51108C13.1396 2.96079 15.9523 1.02921 19.7615 0.816105C23.7609 0.589395 26.8182 2.45749 28.7523 5.82188C29.8031 7.64916 30.2243 9.84372 30.5912 10.9047H30.5957ZM15.2367 13.0948L14.9106 13.2716C15.6262 15.5206 16.052 17.9282 17.13 19.9868C18.7469 23.07 21.836 23.002 23.3397 19.8915C24.4403 17.6199 25.2194 15.1397 25.7674 12.6685C26.2521 10.4876 25.2783 8.50613 23.6613 6.9917C20.8259 4.33012 16.9533 5.37752 15.8663 9.11371C15.4949 10.3969 15.436 11.7662 15.2322 13.0993L15.2367 13.0948Z" fill="#C6A35D"/>
<path id="Vector_3" d="M127.401 12.4191C127.401 16.5271 126.518 20.3722 123.669 23.4962C120.005 27.5181 114.583 27.3004 111.404 22.9249C108.863 19.429 107.54 15.4117 107.499 11.0816C107.445 5.25509 111.965 0.253851 117.315 0.0090039C122.7 -0.235844 126.985 4.16234 127.397 10.3787C127.442 11.0543 127.401 11.739 127.401 12.4191ZM123.148 12.6005L122.745 12.3783C122.519 10.9727 122.573 9.4311 121.984 8.20233C121.418 7.02343 120.358 5.75385 119.203 5.24602C115.82 3.76333 111.571 7.49046 112.201 11.5712C112.618 14.2691 113.591 16.9715 114.801 19.4336C116.214 22.3128 118.968 22.4307 120.589 19.6467C121.826 17.5201 122.324 14.9628 123.148 12.6005Z" fill="#C6A35D"/>
<path id="Vector_4" d="M77.2842 21.4649C77.0215 24.7794 76.1564 28.2798 73.9143 31.2679C70.9884 35.1582 65.9382 35.2172 63.2568 31.1726C60.6388 27.2233 58.7909 22.807 60.1587 17.9373C61.3681 13.6298 65.843 10.9773 69.9647 11.6801C73.9868 12.3647 77.2434 16.5589 77.2842 21.4649ZM72.5918 22.2856C72.6824 18.7444 70.5581 16.2687 68.3568 16.382C66.2145 16.4909 64.0404 18.8804 64.4978 21.1384C64.9689 23.4736 65.7887 25.7905 66.8033 27.9534C67.691 29.8532 69.3895 29.8487 70.3905 27.9262C71.4549 25.8858 72.089 23.6187 72.5918 22.2901V22.2856Z" fill="#C6A35D"/>
</g>
<defs>
<clipPath id="clip0_289_1007">
<rect width="138" height="110" fill="white"/>
</clipPath>
</defs>
</svg>
