<svg width="44" height="71" viewBox="0 0 44 71" fill="none" xmlns="http://www.w3.org/2000/svg">
<g id="_&#208;&#160;&#194;&#187;&#208;&#160;&#209;&#149;&#208;&#160;&#226;&#132;&#150;_1" clip-path="url(#clip0_425_1268)">
<path id="Vector" d="M38.5694 25.5965C38.5694 29.164 38.6116 32.7316 38.5602 36.2972C38.4757 42.0721 35.7668 46.0623 30.3288 47.858C24.5269 49.7738 18.6203 49.7848 12.8846 47.5351C8.10459 45.6599 5.56478 41.9651 5.49127 36.8048C5.38652 29.4575 5.40122 22.1065 5.46922 14.7573C5.52619 8.69085 8.38944 4.21713 13.8899 1.83447C20.2174 -0.906238 26.5761 -0.664466 32.4827 3.15038C36.3659 5.65854 38.3654 9.44016 38.5216 14.0652C38.6521 17.9041 38.5492 21.7521 38.5492 25.5965H38.5694ZM8.98121 27.4439V31.4452C9.35428 31.4452 9.65567 31.4452 9.95707 31.4452C11.9161 31.4489 13.877 31.4286 15.8361 31.4655C16.812 31.4839 17.5177 32.2609 17.5103 33.1856C17.503 34.0936 16.8506 34.7839 15.8968 34.8595C15.4704 34.8927 15.0404 34.8798 14.6121 34.8817C12.7505 34.8835 10.8907 34.8817 9.04553 34.8817C8.50522 38.8589 9.85231 41.8617 12.6549 43.5763C14.9429 44.9771 17.4956 45.4292 20.1016 45.6156C23.6466 45.8666 27.1403 45.599 30.4262 44.0838C33.8647 42.4984 35.6179 39.2668 34.9526 34.8817C34.6365 34.8817 34.3039 34.8817 33.9731 34.8817C32.0434 34.878 30.1156 34.8872 28.186 34.8632C27.313 34.8521 26.7451 34.3871 26.5687 33.5178C26.3923 32.6503 26.7415 31.9859 27.5207 31.6297C27.8882 31.4618 28.3495 31.4562 28.7704 31.4526C30.8452 31.4359 32.9201 31.4452 35.0537 31.4452V27.4439C34.6954 27.4439 34.3958 27.4439 34.0962 27.4439C32.1978 27.4439 30.2994 27.455 28.401 27.4384C27.3075 27.4292 26.5264 26.6965 26.5117 25.7183C26.497 24.7401 27.2524 23.9927 28.3642 23.9558C29.4044 23.9207 30.4464 23.9465 31.4866 23.9465C32.6701 23.9465 33.8555 23.9465 35.0464 23.9465V19.9176C32.8116 19.9176 30.6449 19.9287 28.4763 19.9139C27.2413 19.9047 26.5117 19.2513 26.5136 18.2123C26.5154 17.1898 27.2781 16.5051 28.4782 16.4959C30.3453 16.4811 32.2144 16.494 34.0815 16.4885C34.4031 16.4885 34.7248 16.4571 35.0261 16.4423C35.6418 11.5644 33.5614 7.47645 29.3823 5.30418C25.8906 3.48812 22.1856 3.22974 18.3943 3.98089C15.3987 4.57333 12.7928 5.90954 10.9072 8.42324C9.11536 10.8114 8.74046 13.5337 8.97569 16.4922C9.43146 16.4922 9.79534 16.4922 10.1592 16.4922C12.0576 16.4959 13.9561 16.4737 15.8545 16.5125C16.8248 16.5328 17.5287 17.3227 17.5103 18.2473C17.4919 19.1572 16.8322 19.8604 15.8765 19.8954C14.7151 19.9379 13.5499 19.9157 12.3866 19.9176C11.2619 19.9194 10.1372 19.9176 8.96099 19.9176V23.8284C9.06391 23.8764 9.1172 23.9225 9.1705 23.9225C11.2527 23.9318 13.3349 23.9318 15.4153 23.9484C16.6796 23.9576 17.4901 24.6312 17.5122 25.6592C17.536 26.726 16.7017 27.4384 15.4024 27.4402C13.2926 27.4458 11.1829 27.4402 8.97937 27.4402L8.98121 27.4439Z" fill="#C6A35D"/>
<path id="Vector_2" d="M20.2431 67.5045V55.2295C18.4531 54.9452 16.6649 54.7515 14.9154 54.3676C10.7914 53.4651 7.1177 51.6859 4.23607 48.4875C1.78815 45.7745 0.373067 42.5595 0.169074 38.9329C-0.0385947 35.2232 0.0275652 31.497 -1.4601e-06 27.7781C-0.00735256 26.728 0.52744 26.0229 1.35811 25.8273C2.13733 25.6446 2.95882 26.0506 3.29513 26.8627C3.42929 27.1875 3.45318 27.5769 3.45501 27.9368C3.46788 30.827 3.4642 33.7191 3.46237 36.6093C3.46237 41.4373 5.15863 45.4312 9.20174 48.231C11.7691 50.0101 14.6728 50.9495 17.7382 51.3629C22.7351 52.0384 27.6456 51.745 32.3062 49.6281C37.4208 47.3063 40.2748 43.3346 40.499 37.6557C40.6295 34.3392 40.5523 31.0153 40.556 27.6932C40.556 26.8202 40.9456 26.2149 41.7304 25.8974C42.4361 25.6114 43.0903 25.8162 43.5461 26.3921C43.796 26.7095 44.0074 27.1672 44.0018 27.5585C43.943 31.7055 44.1066 35.8803 43.6747 39.9904C43.116 45.3112 40.1076 49.2239 35.5389 51.9185C32.1133 53.9376 28.333 54.7367 24.4314 55.091C24.2494 55.1077 24.0712 55.1446 23.8911 55.1759C23.8653 55.1796 23.8451 55.2092 23.7753 55.2627V67.4621C24.13 67.4787 24.4534 67.5045 24.7769 67.5045C27.778 67.5082 30.779 67.4953 33.7801 67.5193C34.223 67.523 34.7045 67.6042 35.0978 67.7943C35.8348 68.1523 36.1637 68.8149 35.9799 69.6306C35.7999 70.4298 35.2375 70.8727 34.4325 70.9908C34.2818 71.013 34.1275 71.0001 33.9731 71.0001C26.0119 71.0001 18.0488 71.0001 10.0875 70.9982C9.81371 70.9982 9.52886 71.0019 9.26973 70.9281C8.42987 70.69 7.91162 69.8743 8.02372 69.0234C8.13583 68.1671 8.91504 67.5193 9.93685 67.5137C13.0298 67.4971 16.1228 67.5082 19.2158 67.5064C19.5429 67.5064 19.87 67.5064 20.2468 67.5064L20.2431 67.5045Z" fill="#C6A35D"/>
</g>
<defs>
<clipPath id="clip0_425_1268">
<rect width="44" height="71" fill="white"/>
</clipPath>
</defs>
</svg>
