<svg width="539" height="238" viewBox="0 0 539 238" fill="none" xmlns="http://www.w3.org/2000/svg">
<g opacity="0.4" clip-path="url(#clip0_289_916)">
<path d="M0 237.83L87.89 151.54L148.71 111.26L189.13 59.34L255.33 0L286.85 25.4L298.54 15.11L379.15 73.8L538.85 237.83H0Z" fill="#F4EDD9"/>
<path d="M3.09003 237.83L104.95 195.07L148.71 111.26L86.41 156.87L3.09003 237.83Z" fill="#C6A35D"/>
<path d="M168.74 94.2899L189.13 61.3799L185.06 111.26L168.74 94.2899Z" fill="#FFF8E6"/>
<path d="M104.95 195.07L176.15 208.79L185.05 111.26C185.05 111.26 185.14 96.06 178.19 96.06C171.24 96.06 168.73 94.3 168.73 94.3L104.94 195.08L104.95 195.07Z" fill="#D6B57B"/>
<path d="M279.58 94.2899L284.63 49.5099L298.54 16.6899L285.41 96.4599L279.58 94.2899Z" fill="#FFF8E6"/>
<path d="M257.93 53.5899L255.33 19.6599C255.33 19.6599 261.26 28.6499 262.75 38.1099C264.23 47.5699 267.85 43.9499 269.98 40.9799C272.11 38.0099 275.82 35.3199 278.23 39.8699C280.64 44.4199 284.63 49.5099 284.63 49.5099L278.14 108.48L259.11 76.7799L257.93 53.5999V53.5899Z" fill="#D8C4A3"/>
<path d="M262.75 148.16L277.41 115.88L279.58 94.3001C279.58 94.3001 272.21 94.7601 269.98 82.9001C267.75 71.0301 267.57 59.5401 262.75 56.5701L257.93 53.6001L262.75 148.17V148.16Z" fill="#D6B57B"/>
<path d="M255.33 19.6599C255.33 19.6599 252.55 26.9799 252.09 36.4399C251.63 45.8999 247.08 50.5299 240.78 51.7399C234.48 52.9499 229.19 51.9299 222.24 59.8099C215.29 67.6899 212.32 72.3299 206.29 71.3099C200.26 70.2899 194.42 56.5899 194.42 56.5899L189.14 61.3899L184.81 114.04L259.69 87.9899L255.34 19.6599H255.33Z" fill="#F4E0B3"/>
<path d="M176.15 208.79L262.74 148.16L257.92 53.5901C257.92 53.5901 253.47 70.2801 242.16 80.1101C230.85 89.9401 207.49 87.3401 197.84 94.3001C188.2 101.25 185.05 111.27 185.05 111.27L176.15 208.8V208.79Z" fill="#D8C4A3"/>
<path d="M349.34 136.1L536.58 237.83L376.79 76.77L349.34 136.1Z" fill="#C6A35D"/>
<path d="M298.54 16.6899L291.97 56.5699L303.54 64.0599L308.73 50.2499L298.54 16.6899Z" fill="#F4E0B3"/>
<path d="M269.98 188.02L349.34 136.1L376.78 76.7599L298.53 16.6799C298.53 16.6799 298.07 34.0199 301.13 45.4199C304.19 56.8199 304.19 59.6099 300.85 59.8799C297.51 60.1599 291.95 53.1999 291.95 53.1999C291.95 53.1999 289.17 55.6999 286.11 64.5999C283.05 73.4999 279.16 92.7799 277.49 111.23C275.82 129.68 269.98 188 269.98 188V188.02Z" fill="#D6B57B"/>
<path d="M271.73 186.88L291.95 53.22C291.95 53.22 284.12 64.12 280.96 86.04C277.8 107.96 269.97 188.03 269.97 188.03L271.72 186.89L271.73 186.88Z" fill="#D8C4A3"/>
<path d="M3.09003 237.83L104.95 195.07L176.15 208.79L262.75 148.16L277.41 115.87L269.98 188.02L349.34 136.1L536.58 237.83H3.09003Z" fill="#F4E0B3"/>
</g>
<defs>
<clipPath id="clip0_289_916">
<rect width="538.85" height="237.83" fill="white"/>
</clipPath>
</defs>
</svg>
