<svg width="726" height="319" viewBox="0 0 726 319" fill="none" xmlns="http://www.w3.org/2000/svg">
<g clip-path="url(#clip0_289_934)">
<path d="M0.683594 346.315C0.683594 346.315 78.0215 265.833 131.595 229.165C185.168 192.498 193.946 188.582 193.946 188.582C193.946 188.582 255.313 108.4 290.386 77.1001C325.459 45.7998 346.393 28.6846 346.393 28.6846L393.636 64.3801L410.687 49.2229C410.687 49.2229 506.648 115.726 539.765 142.617C572.883 169.509 725.316 344.453 725.316 344.453" stroke="#C6A35D" stroke-linecap="round" stroke-linejoin="round"/>
<path d="M59.8357 341.359L125.756 315.7L233.395 334.28L361.01 240.886L381.958 205.546L375.696 303.952L483.266 229.631L563.27 275.883V246.568C563.27 246.568 573.936 257.768 601.693 271.488C631.037 286.001 638.762 316.959 638.762 316.959" stroke="#C6A35D" stroke-linecap="round" stroke-linejoin="round"/>
<path d="M410.7 49.2228L416.06 115.233L399.009 107.415L381.958 164.62C381.958 164.62 373.918 157.774 368.203 132.841C362.474 107.907 355.213 106.922 355.213 106.922C355.213 106.922 342.51 147.012 313.276 156.309C284.055 165.593 276.74 158.76 260.674 170.494C244.593 182.229 242.652 188.102 242.652 188.102V163.169L226.093 188.102L221.225 169.522L125.756 315.713L193.946 188.582" stroke="#C6A35D" stroke-linecap="round" stroke-linejoin="round"/>
<path d="M399.009 107.401L381.958 205.56" stroke="#C6A35D" stroke-linecap="round" stroke-linejoin="round"/>
<path d="M355.213 106.922L361.01 240.886" stroke="#C6A35D" stroke-linecap="round" stroke-linejoin="round"/>
<path d="M242.652 188.089L233.395 334.28" stroke="#C6A35D" stroke-linecap="round" stroke-linejoin="round"/>
<path d="M483.266 229.644L528.868 134.046" stroke="#C6A35D" stroke-linecap="round" stroke-linejoin="round"/>
</g>
<defs>
<clipPath id="clip0_289_934">
<rect width="726" height="319" fill="white"/>
</clipPath>
</defs>
</svg>
