<svg width="40" height="57" viewBox="0 0 40 57" fill="none" xmlns="http://www.w3.org/2000/svg">
<g id="_&#208;&#160;&#194;&#187;&#208;&#160;&#209;&#149;&#208;&#160;&#226;&#132;&#150;_1" clip-path="url(#clip0_425_1265)">
<path id="Vector" d="M40 22.3047C39.284 24.1758 38.3136 27.9418 36.4852 31.2266C32.0236 39.2396 27.1716 47.0269 22.4556 54.8974C20.8047 57.6595 19.781 57.701 18.0828 54.9746C12.9704 46.7715 7.69819 38.6575 2.89346 30.2762C-4.46158 17.4577 2.86387 2.54837 17.4201 0.225835C29.0651 -1.63338 40.1183 8.22698 40 22.3107V22.3047ZM20.213 52.1293C25.2485 43.6233 30.2662 35.7112 34.71 27.4844C38.6272 20.2317 36.4497 11.8622 30.0177 6.80733C24.071 2.13257 15.4201 2.25731 9.55618 7.11027C3.33132 12.2602 1.32541 20.6059 5.27215 27.6329C9.85795 35.7825 14.9822 43.6173 20.2071 52.1353L20.213 52.1293Z" fill="#C6A35D"/>
<path id="Vector_2" d="M20.1006 10.0207C25.5325 10.0801 30.0059 14.6895 29.9408 20.1543C29.8757 25.6666 25.3077 30.1097 19.8225 29.9968C14.2663 29.884 9.87574 25.3636 9.97633 19.8692C10.0769 14.3866 14.6272 9.95535 20.1006 10.0148V10.0207ZM13.4201 20.1008C13.4497 23.7658 16.3491 26.6942 19.9586 26.7001C23.568 26.7001 26.4615 23.7836 26.497 20.1008C26.5325 16.2458 23.6095 13.3174 19.8107 13.3946C16.1361 13.4718 13.3965 16.3468 13.4201 20.1008Z" fill="#C6A35D"/>
</g>
<defs>
<clipPath id="clip0_425_1265">
<rect width="40" height="57" fill="white"/>
</clipPath>
</defs>
</svg>
